<svg width="741" height="66" viewBox="0 0 741 66" fill="none" xmlns="http://www.w3.org/2000/svg">
<path fill-rule="evenodd" clip-rule="evenodd" d="M572.428 0.577134C572.014 0.910161 571.678 0.945661 571.281 0.697496C570.505 0.212664 567.065 1.49 566.515 2.4671C566.201 3.02395 566.165 2.88263 566.372 1.90687L566.649 0.601815L564.68 0.861474C561.802 1.2415 560.967 1.28241 560.472 1.06771C559.833 0.790812 556.963 1.02106 556.354 1.39804C556.014 1.60833 555.768 1.56878 555.638 1.28207C555.479 0.93146 555.148 0.926389 553.962 1.2557C552.955 1.5353 552.221 1.55965 551.656 1.33245C551.025 1.07786 550.612 1.16171 549.915 1.6861C549.155 2.25782 548.681 2.33254 547.097 2.13103C546.05 1.99748 544.99 1.93899 544.743 2.00086C544.496 2.0624 543.182 2.15977 541.823 2.21691C537.896 2.38224 537.781 2.39509 537.781 2.66726C537.781 2.8096 537.144 2.85524 536.365 2.76936C535.099 2.62939 534.975 2.68957 535.199 3.335C535.368 3.81983 535.242 4.05718 534.818 4.05718C534.471 4.05718 534.187 3.82896 534.187 3.55003C534.187 3.21193 533.738 3.04288 532.839 3.04288C532.061 3.04288 531.492 3.2214 531.492 3.46551C531.491 3.72652 530.796 3.90537 529.672 3.93343C527.601 3.98482 526.946 4.28742 527.911 4.74656C528.358 4.95956 528.391 5.06268 528.01 5.0664C527.702 5.06911 527.449 5.29969 527.449 5.57862C527.449 5.85755 527.145 6.08577 526.775 6.08577C526.404 6.08577 526.101 5.85755 526.101 5.57862C526.101 5.29969 526.303 5.07147 526.55 5.07147C526.797 5.07147 526.999 4.91933 526.999 4.73337C526.999 4.22352 525.783 4.32766 525.511 4.8605C525.366 5.14383 524.854 5.26554 524.201 5.17155C523.21 5.02921 523.143 5.10765 523.313 6.20478C523.488 7.33369 524.6 8.12416 525.167 7.52269C525.31 7.37088 525.983 7.21975 526.663 7.18729C527.342 7.15483 528.151 7.11088 528.459 7.08958C528.768 7.06828 529.476 7.15585 530.032 7.28399C530.786 7.45811 531.042 7.38068 531.042 6.97868C531.042 6.54085 531.257 6.50197 532.195 6.77042C533.929 7.26641 535.534 7.18121 535.534 6.59292C535.534 6.27747 535.959 6.08577 536.657 6.08577C537.314 6.08577 537.781 6.28017 537.781 6.55302C537.781 7.19338 541.334 7.23395 541.659 6.59731C541.788 6.34374 542.434 6.14426 543.094 6.15373C545.38 6.18686 545.866 6.0834 545.866 5.56374C545.866 5.2767 546.119 5.0664 546.428 5.09683C546.737 5.12692 547.451 5.13368 548.016 5.11137C548.895 5.07722 548.974 4.97545 548.567 4.40305C548.179 3.85736 548.217 3.77081 548.776 3.93174C549.152 4.04061 549.46 4.34152 549.46 4.6005C549.46 4.85948 549.742 5.07147 550.086 5.07147C550.43 5.07147 550.826 5.29732 550.968 5.57321C551.343 6.31027 556.761 6.11451 557.995 5.3193C558.944 4.70768 560.024 4.51463 559.599 5.03293C559.464 5.19758 559.861 5.40518 560.482 5.49477C561.102 5.58403 561.72 5.52283 561.855 5.35886C561.99 5.19454 562.288 5.14788 562.518 5.25506C562.748 5.3619 562.936 5.28819 562.936 5.09142C562.936 4.89465 563.353 4.73337 563.861 4.73337C564.37 4.73337 564.661 4.88552 564.509 5.07147C564.338 5.2794 564.976 5.38996 566.167 5.35886C567.458 5.32505 567.699 5.26182 566.892 5.16918C566.029 5.07012 565.756 4.88214 565.943 4.5153C566.087 4.23231 566.329 4.1275 566.48 4.28235C566.905 4.71884 568.692 5.40957 569.397 5.40957C569.745 5.40957 570.96 4.74791 572.098 3.93884C573.514 2.93199 574.167 2.64258 574.167 3.02091C574.167 3.32452 573.557 3.84452 572.811 4.17585C571.285 4.85441 571.414 5.40957 573.097 5.40957C573.815 5.40957 574.107 5.2723 573.907 5.02887C573.683 4.75603 573.821 4.74352 574.393 4.98458C575.405 5.41059 576.862 5.13909 576.862 4.52477C576.862 4.26781 577.064 4.05718 577.311 4.05718C577.558 4.05718 577.76 4.26004 577.76 4.50786C577.76 5.21516 583.051 5.13436 583.305 4.42334C583.462 3.98212 583.505 3.99193 583.548 4.4798C583.608 5.16141 584.52 5.2581 585.307 4.66575C585.716 4.35809 585.846 4.3564 585.846 4.65865C585.846 5.10089 593.735 5.08162 594.68 4.63735C594.967 4.50178 595.305 4.58224 595.431 4.81587C595.606 5.14011 595.767 5.12455 596.114 4.7496C596.363 4.47946 596.469 4.139 596.349 3.9926C596.229 3.84654 596.445 3.81747 596.828 3.92802C597.212 4.03892 597.525 4.30872 597.525 4.52815C597.525 4.96396 598.383 5.06336 601.793 5.02279C603.028 5.00791 605.656 5.03056 607.633 5.07283C613.929 5.20773 614.317 5.19184 614.494 4.79288C614.614 4.52139 614.873 4.55587 615.338 4.90547C616.183 5.54177 618.964 5.55495 620.946 4.93184C622.254 4.52037 622.585 4.52037 623.333 4.93184C624.394 5.51607 625.32 5.56983 624.568 5.00385C623.834 4.45174 623.891 4.05718 624.703 4.05718C625.073 4.05718 625.376 4.28539 625.376 4.56433C625.376 4.84326 625.73 5.08398 626.163 5.09886C626.595 5.11407 627.555 5.16242 628.296 5.20637C629.038 5.25033 629.793 5.12388 629.974 4.92542C630.195 4.68401 630.306 4.7043 630.311 4.98695C630.315 5.21956 630.772 5.4072 631.329 5.4045C632.032 5.40078 632.162 5.31457 631.757 5.12084C631.288 4.89735 631.304 4.76144 631.837 4.42807C632.378 4.09031 632.591 4.14035 632.989 4.69889C633.28 5.109 633.746 5.30645 634.149 5.19015C634.519 5.08331 635.071 5.15025 635.377 5.33891C636.282 5.89711 637.763 5.94985 638.559 5.45251C639.042 5.15126 639.302 5.12151 639.302 5.36832C639.302 5.771 640.753 5.89474 641.235 5.53298C641.881 5.04645 645.102 5.07823 645.471 5.5749C645.862 6.10064 647.786 6.24603 650.661 5.96709C651.596 5.87615 652.961 5.93126 653.693 6.08915C654.425 6.24738 655.024 6.25414 655.024 6.10436C655.024 5.95459 655.53 5.83219 656.147 5.83219C656.765 5.83219 657.27 6.02356 657.27 6.25752C657.27 6.76568 658.962 7.16802 659.166 6.70821C659.244 6.53206 660.062 6.25989 660.984 6.10335C662.489 5.84808 662.661 5.88866 662.661 6.49723C662.661 7.09736 662.854 7.14807 664.345 6.93845C665.272 6.80828 665.873 6.82046 665.682 6.9655C665.178 7.34755 668.168 8.04944 668.798 7.69714C669.103 7.5264 669.44 7.55244 669.61 7.75969C669.77 7.95477 670.664 8.11436 671.597 8.11436C672.529 8.11436 673.438 8.2239 673.616 8.35779C674.119 8.73646 678.541 8.74423 679.169 8.36793C679.573 8.12619 679.731 8.19077 679.731 8.59682C679.731 9.04886 680.158 9.15773 681.865 9.13981C683.038 9.1273 684.678 9.21554 685.508 9.33591C686.484 9.47723 687.136 9.41063 687.352 9.14758C687.608 8.83552 687.832 8.846 688.313 9.19221C689.224 9.84846 691.27 10.4736 691.627 10.2048C692.186 9.78422 694.076 9.93434 694.323 10.4192C694.514 10.7941 694.703 10.8093 695.214 10.4902C695.862 10.0855 696.994 10.3113 696.617 10.7698C696.442 10.9824 697.71 11.0294 699.384 10.8719C699.693 10.8428 699.962 10.5527 699.981 10.2275C700.009 9.75447 700.069 9.73757 700.278 10.1429C700.422 10.4219 700.842 10.8171 701.21 11.0213C701.578 11.2255 701.747 11.5538 701.585 11.7506C701.404 11.9721 701.618 12.0444 702.148 11.9399C702.62 11.8473 703.74 12.0339 704.638 12.3544C705.536 12.6753 707.273 12.938 708.499 12.938C709.724 12.938 710.726 13.0699 710.726 13.2308C710.726 13.3921 711.03 13.5239 711.4 13.5239C711.771 13.5239 712.074 13.3556 712.074 13.1497C712.074 12.9438 712.377 12.8629 712.748 12.9701C713.118 13.077 713.422 13.0171 713.422 12.8373C713.422 12.2993 714.651 12.4667 714.946 13.0445C715.349 13.835 715.32 13.862 714.064 13.862C712.966 13.862 712.947 13.8911 713.69 14.4507C714.248 14.8699 714.525 14.9196 714.657 14.6231C714.782 14.3401 715.314 14.4784 716.319 15.0552C717.253 15.5917 718.082 15.8206 718.574 15.6786C719.035 15.5458 719.511 15.6465 719.741 15.9258C719.955 16.1854 720.49 16.3981 720.931 16.3981C721.372 16.3984 721.757 16.5888 721.788 16.8207C721.819 17.053 721.87 17.3708 721.901 17.5267C722.057 18.3195 726 18.9497 726 18.1819C726 17.9547 726.314 18.1072 726.699 18.5207C727.084 18.9345 727.289 19.4075 727.154 19.5718C726.826 19.9708 727.735 20.4793 729.269 20.7552C730.012 20.8891 731.011 21.5179 731.74 22.3104C732.412 23.0424 733.211 23.6469 733.515 23.654C733.819 23.6611 734.206 24.08 734.375 24.5855C734.543 25.0906 735.053 25.8047 735.508 26.1725C736.07 26.6266 736.231 27.0644 736.007 27.5364C735.826 27.9185 735.722 28.8306 735.776 29.563C735.83 30.2956 735.573 31.2409 735.204 31.6642C734.836 32.0875 734.535 32.667 734.535 32.9527C734.535 33.2381 734.332 33.4335 734.084 33.3872C733.837 33.3405 733.379 33.683 733.066 34.1479C732.753 34.6128 732.046 35.1433 731.494 35.3269C730.943 35.5105 730.492 35.9212 730.492 36.2397C730.492 36.5586 730.206 36.9406 729.857 37.0894C729.507 37.2381 729.154 37.8163 729.071 38.3741C728.961 39.1129 728.674 39.3979 728.015 39.4229C726.827 39.4682 724.705 40.3179 723.315 41.3038C722.703 41.7379 722.149 42.0594 722.084 42.0178C721.752 41.8062 717.579 43.2177 716.685 43.8442C716.373 44.0633 716.117 44.4234 716.117 44.6442C716.117 44.8741 715.747 44.9731 715.253 44.8758C714.778 44.7825 713.763 44.9928 712.996 45.3437C712.23 45.6943 711.312 45.9814 710.956 45.9814C710.6 45.9814 709.561 46.4757 708.647 47.0795C707.733 47.6837 706.614 48.1303 706.16 48.0725C705.58 47.9984 705.336 48.1756 705.336 48.6713C705.336 49.265 705.148 49.3397 704.139 49.149C703.148 48.962 702.991 49.0192 703.226 49.4807C703.416 49.8536 703.276 50.0385 702.803 50.0385C702.359 50.0385 702.191 49.8499 702.354 49.5314C702.53 49.1865 702.33 49.0242 701.728 49.0242C701.242 49.0242 700.844 49.151 700.844 49.3059C700.844 49.4611 700.591 49.6135 700.282 49.6453C695.345 50.1521 692.857 50.8675 692.672 51.8338C692.547 52.4901 692.468 52.51 691.879 52.0326C691.211 51.492 691.188 51.4937 687.292 52.3887C686.385 52.5969 684.886 52.8404 683.96 52.9293C683.035 53.0185 682.045 53.2369 681.76 53.4144C681.477 53.5919 680.044 53.8371 678.578 53.9591C677.099 54.0822 674.968 54.5599 673.791 55.0326C672.087 55.7162 671.54 55.8031 671.012 55.4735C670.532 55.1736 670.113 55.1604 669.457 55.4248C668.964 55.6236 667.87 55.7862 667.027 55.7862C666.184 55.7862 664.867 56.0215 664.101 56.3092C663.244 56.6314 660.949 56.8962 658.131 56.9983C655.613 57.0896 653.205 57.3049 652.778 57.477C652.351 57.6488 650.61 57.8141 648.909 57.8445C647.208 57.875 645.002 58.1032 644.008 58.352C643.014 58.6005 640.891 58.8315 639.291 58.8653C637.255 58.9085 636.066 59.1121 635.327 59.5448C634.41 60.0814 634.187 60.099 633.627 59.6777C633.158 59.3247 632.685 59.2777 631.89 59.5053C631.289 59.6774 630.032 59.8062 629.097 59.7917C628.162 59.7771 627.196 59.7981 626.949 59.8383C626.702 59.8789 625.863 59.886 625.085 59.8545C624.307 59.8231 623.537 59.96 623.374 60.1585C623.211 60.357 622.609 60.5196 622.036 60.5196C621.463 60.5196 620.747 60.7434 620.446 61.0173C619.993 61.4277 619.794 61.4372 619.308 61.072C618.579 60.5226 613.432 60.6596 612.481 61.2536C611.972 61.5717 611.752 61.5626 611.463 61.2103C611.187 60.8746 609.834 60.7759 606.103 60.8191C600.646 60.8824 598.88 61.1988 598.86 62.1171C598.847 62.6729 598.81 62.6706 598.358 62.085C597.963 61.5734 597.794 61.5413 597.473 61.9159C597.162 62.2794 597.022 62.2307 596.824 61.6887C596.652 61.2201 596.147 60.974 595.252 60.9226C594.526 60.881 593.932 60.9814 593.932 61.1461C593.932 61.3107 593.325 61.3919 592.584 61.327C591.843 61.262 591.237 61.3469 591.237 61.5156C591.237 61.9541 589.86 62.1211 588.504 61.8476C587.631 61.6715 587.213 61.7712 586.816 62.25C586.525 62.5999 585.946 62.8863 585.528 62.8863C584.937 62.8863 584.888 62.796 585.307 62.4805C586.45 61.6204 585.828 61.3652 582.694 61.4078C580.96 61.4311 579.437 61.3229 579.309 61.1667C578.967 60.7508 576.936 61.5369 576.71 62.1725C576.555 62.6114 576.506 62.5965 576.465 62.0958C576.418 61.541 576.039 61.4838 572.931 61.5653C571.017 61.6154 569.002 61.7753 568.455 61.9203C567.869 62.0758 567.343 62.041 567.174 61.8361C567.017 61.6444 566.58 61.5768 566.203 61.6857C565.826 61.7945 565.291 61.7509 565.013 61.5886C563.556 60.7366 561.63 61.0369 561.023 62.2101C560.815 62.6131 560.754 62.5945 560.726 62.1201C560.701 61.6972 560.33 61.5271 559.455 61.5373C558.776 61.5447 557.721 61.5092 557.11 61.4578C555.888 61.3554 555.215 62.4292 556.212 62.8924C556.514 63.0333 556.624 63.318 556.454 63.5246C556.008 64.0672 555.3 63.9868 555.3 63.3934C555.3 63.1145 555.09 62.8863 554.835 62.8863C554.527 62.8863 554.541 62.6459 554.875 62.1752C555.362 61.4903 555.297 61.469 553.094 61.5836C551.378 61.6732 550.807 61.587 550.807 61.2391C550.808 60.8648 550.677 60.8563 550.134 61.1958C549.725 61.451 549.46 61.4781 549.46 61.2644C549.46 61.0582 548.296 60.9104 546.652 60.9081C545.108 60.9057 541.588 60.8529 538.83 60.7911C536.072 60.7295 533.909 60.7934 534.024 60.9334C534.303 61.2722 532.877 60.8658 531.56 60.2305C530.795 59.862 530.301 59.818 529.763 60.0706C529.349 60.265 528.623 60.3022 528.122 60.1551C526.799 59.766 523.432 59.7947 521.435 60.2122C520.118 60.4871 519.606 60.4773 519.355 60.1724C519.166 59.9418 517.886 59.747 516.385 59.7206C514.2 59.6824 513.575 59.8045 512.737 60.4351C511.48 61.3814 510.614 61.4446 511.369 60.5348C512.005 59.7683 511.516 59.1905 510.73 59.7815C509.956 60.3641 509.27 60.2721 509.929 59.6743C510.237 59.3954 510.413 59.1594 510.321 59.1499C510.23 59.1408 508.876 59.0485 507.314 58.9451C504.768 58.7763 504.355 58.8389 503.32 59.5536L502.166 60.3505L502.463 59.4208C502.786 58.4078 502.815 58.4197 499.71 58.3206C498.66 58.2868 497.801 58.3983 497.801 58.5684C497.801 58.7385 497.483 58.6384 497.095 58.3459C496.707 58.0538 496.033 57.8148 495.597 57.8148C495.162 57.8148 494.677 57.7174 494.519 57.5987C494.361 57.4797 493.468 57.3438 492.535 57.2968C488.226 57.0784 485.475 56.7603 484.925 56.4164C484.48 56.1385 484.137 56.1584 483.602 56.4928C482.99 56.8749 482.791 56.8526 482.3 56.3471C481.864 55.8988 481.661 55.8599 481.484 56.1909C481.299 56.5364 481.164 56.5415 480.856 56.2149C480.64 55.986 479.994 55.8667 479.42 55.9498C478.845 56.0334 477.245 55.8024 475.863 55.4369C474.482 55.0711 472.99 54.8585 472.549 54.9639C472.057 55.0813 471.744 54.9832 471.74 54.71C471.734 54.3821 471.615 54.3983 471.287 54.7719C470.906 55.206 470.729 55.1715 470.059 54.5335C469.628 54.1238 468.114 53.456 466.693 53.0496C465.272 52.6436 464.11 52.2108 464.11 52.0881C464.11 51.9654 463.403 51.9268 462.538 52.0029C461.092 52.13 460.966 52.0692 460.966 51.2503C460.966 50.5264 460.707 50.3208 459.584 50.1518C458.609 50.0051 457.859 49.5351 457.037 48.5543C456.396 47.7898 455.919 47.113 455.978 47.0494C456.036 46.9858 455.792 46.7576 455.434 46.5423C455.076 46.3269 454.657 45.2774 454.502 44.2107C454.255 42.5047 454.329 42.22 455.123 41.8471C455.619 41.6141 456.024 41.0796 456.024 40.6594C456.024 40.2394 456.217 39.8956 456.452 39.8956C456.688 39.8956 457.216 39.3631 457.627 38.7122C458.037 38.0614 458.653 37.5289 458.995 37.5289C459.338 37.5289 459.618 37.3372 459.618 37.1032C459.618 36.8689 460.022 36.4872 460.516 36.2549C461.01 36.0227 461.415 35.5473 461.415 35.1987C461.415 34.837 461.824 34.4843 462.369 34.3771C463.136 34.226 463.266 34.0201 463.034 33.3233C462.752 32.4781 463.33 32.1197 463.885 32.7955C464.038 32.9815 464.332 33.1336 464.538 33.1336C465.096 33.1336 465.509 32.1163 465.133 31.6663C464.954 31.4506 464.864 31.008 464.936 30.6824C465.007 30.3572 464.838 30.0907 464.561 30.0907C464.284 30.0907 464.178 30.2385 464.327 30.419C464.475 30.5996 464.09 30.8427 463.471 30.9597C462.852 31.0766 462.223 31.4614 462.074 31.8147C461.926 32.1684 461.615 32.4574 461.385 32.4574C461.154 32.4574 460.966 32.6427 460.966 32.8692C460.966 33.0958 460.428 33.6289 459.771 34.0539C459.114 34.4786 458.355 35.1683 458.084 35.5859C457.814 36.0037 456.941 36.5738 456.144 36.8527C455.346 37.132 454.692 37.6209 454.687 37.941C454.68 38.3173 454.439 38.4533 454.003 38.3275C453.221 38.1016 453.154 38.4901 453.764 39.6985C454.124 40.4109 454.044 40.6218 453.302 40.9207C452.809 41.1195 452.529 41.4329 452.681 41.6179C452.833 41.8025 452.699 42.1876 452.384 42.4736C451.958 42.8604 451.937 43.1454 452.304 43.588C452.606 43.9518 452.642 44.3673 452.396 44.6591C451.85 45.3085 451.875 46.9957 452.431 46.9957C452.678 46.9957 452.896 47.4142 452.915 47.9254C452.935 48.4366 453.053 48.6652 453.177 48.4326C453.471 47.8845 454.142 47.8845 454.078 48.4326C453.995 49.146 455.705 51.3909 456.332 51.3909C456.657 51.3909 456.923 51.6049 456.923 51.8663C456.923 52.1648 457.236 52.2801 457.764 52.1763C458.34 52.0631 458.916 52.3393 459.591 53.0534C460.134 53.6268 460.968 54.0957 461.445 54.0957C461.923 54.0957 462.313 54.3239 462.313 54.6029C462.313 54.8818 462.616 55.11 462.987 55.11C463.358 55.11 463.661 55.275 463.661 55.4762C463.661 55.6777 463.914 55.7727 464.222 55.6875C464.531 55.6023 464.736 55.367 464.677 55.1644C464.618 54.9619 464.871 54.8831 465.238 54.9893C465.606 55.0955 465.907 55.3771 465.907 55.6148C465.907 56.0367 468.473 57.1386 469.456 57.1386C469.728 57.1386 469.95 57.2677 469.95 57.4253C469.95 57.5829 470.576 57.7252 471.343 57.7418C472.109 57.758 473.096 58.017 473.536 58.3169C474.073 58.6827 474.723 58.7889 475.512 58.6398C476.202 58.5096 476.688 58.5596 476.688 58.7608C476.688 58.9495 477.092 59.0242 477.586 58.9271C478.6 58.7273 478.765 58.2942 477.923 58.0386C477.615 57.945 477.817 57.856 478.372 57.8415C478.957 57.8259 479.383 58.0146 479.383 58.2888C479.383 58.8534 481.885 59.6584 483.314 59.5536C483.869 59.5131 484.325 59.6213 484.325 59.7944C484.325 60.3174 485.744 60.5574 486.403 60.146C486.881 59.8474 487.02 59.8782 487.02 60.2822C487.02 60.6765 487.706 60.8502 489.827 60.9936C491.372 61.0981 493.211 61.167 493.915 61.1474C495.069 61.115 495.171 61.0179 494.945 60.1696C494.769 59.5073 494.9 59.1692 495.386 59.0286C496.436 58.7256 496.574 58.7804 496.27 59.3771C496.055 59.7984 496.2 59.8836 496.896 59.7467C498.049 59.5198 498.058 59.8924 496.915 60.5128C496.098 60.9557 496.085 61.0409 496.747 61.591C497.253 62.0123 497.687 62.0988 498.219 61.8848C498.646 61.7124 499.244 61.7077 499.6 61.8733C499.946 62.0339 500.373 62.0985 500.549 62.0163C500.726 61.9342 501.443 62.0326 502.143 62.2351C502.843 62.4376 504.427 62.6712 505.662 62.7547C506.897 62.8379 508.287 62.9941 508.75 63.1016C509.299 63.2288 509.486 63.1662 509.285 62.9224C508.824 62.3612 509.735 62.4718 510.379 63.0553C511.168 63.7717 511.726 63.6845 511.726 62.845C511.726 62.32 511.877 62.2162 512.288 62.4576C512.597 62.6395 513.507 62.9546 514.309 63.1578C515.679 63.5046 515.769 63.4786 515.769 62.7392C515.769 62.2354 516.093 61.8872 516.666 61.7743C517.372 61.6353 517.481 61.7087 517.176 62.1184C516.498 63.0303 518.127 63.863 520.573 63.8549C521.76 63.8509 523.592 63.9959 524.644 64.1768C525.76 64.3688 526.659 64.38 526.804 64.2032C526.941 64.0368 526.838 63.9006 526.577 63.9006C526.315 63.9006 526.101 63.7819 526.101 63.6365C526.101 63.219 528.645 62.607 529.237 62.8822C529.587 63.0452 529.41 63.2068 528.722 63.3525L527.673 63.5743L528.696 64.2214C529.994 65.043 536.334 65.1637 536.737 64.3746C537.058 63.7447 537.781 63.7677 537.781 64.4077C537.781 64.7194 538.201 64.9149 538.873 64.9149C539.793 64.9149 539.961 64.7563 539.929 63.9175C539.901 63.1885 539.647 62.8927 538.986 62.8186C538.197 62.7301 538.168 62.6635 538.76 62.2966C539.334 61.9406 539.605 62.1188 540.519 63.457L541.599 65.0379L541.854 64.0466C541.994 63.5013 541.951 62.7203 541.761 62.3108C541.491 61.734 541.56 61.6089 542.067 61.7553C542.427 61.8591 542.725 62.1181 542.729 62.3308C542.733 62.562 542.893 62.5299 543.128 62.2513C543.68 61.5957 544.612 62.1316 544.282 62.9147C544.132 63.271 544.211 63.5625 544.458 63.5625C544.705 63.5625 545.036 63.8667 545.192 64.2387C545.349 64.6106 545.767 64.9149 546.121 64.9149C546.475 64.9149 546.765 65.067 546.765 65.253C546.765 65.7036 548.392 65.6833 549.547 65.2181C550.258 64.9318 550.562 64.9514 550.858 65.3027C551.157 65.658 551.245 65.6282 551.25 65.1684C551.258 64.4632 552.474 64.3918 553.467 65.0383C553.858 65.2918 554.935 65.5867 555.861 65.6932C557.175 65.8439 557.546 65.7746 557.546 65.378C557.546 64.8679 558.637 64.9581 560.217 65.5982C560.575 65.7432 561.326 65.7307 561.886 65.5701C562.497 65.3953 563.011 65.4088 563.172 65.6039C563.563 66.081 566.423 66.0008 566.644 65.5065C566.781 65.2016 567.009 65.1833 567.467 65.4409C567.817 65.6377 569.263 65.8365 570.683 65.8832C572.965 65.9579 573.389 65.8656 574.354 65.0822L575.445 64.1967L575.591 64.9784C575.73 65.7128 575.916 65.7557 578.659 65.6867C580.265 65.6465 581.781 65.5978 582.028 65.5782C582.275 65.5589 585.237 65.6482 588.61 65.776C594.365 65.9944 594.757 65.9701 594.96 65.3774C595.15 64.8198 595.181 64.8151 595.227 65.3375C595.274 65.8652 595.774 66.0789 596.72 65.9741C597.404 65.898 610.399 65.5187 611.563 65.5407C612.242 65.5535 612.799 65.4217 612.799 65.2475C612.799 65.0562 613.212 65.0498 613.847 65.2317C614.423 65.3966 615.163 65.4068 615.491 65.2543C615.822 65.1005 616.424 65.135 616.842 65.3317C617.311 65.5522 618.261 65.5829 619.353 65.4129C620.319 65.2624 621.293 65.1728 621.517 65.2137C621.741 65.255 622.069 65.1126 622.246 64.8979C622.488 64.6028 622.804 64.6024 623.532 64.8956C624.063 65.1093 624.681 65.1985 624.905 65.094C625.13 64.9896 626.58 64.8297 628.127 64.7394C629.675 64.6488 631.071 64.4155 631.231 64.2207C631.391 64.026 631.908 63.8722 632.38 63.8793C633.562 63.8965 634.885 63.8948 635.821 63.8752C636.253 63.8661 636.607 63.6399 636.607 63.3725C636.607 63.105 636.91 62.8863 637.281 62.8863C637.651 62.8863 637.954 63.0384 637.954 63.2244C637.954 63.4103 638.245 63.5625 638.6 63.5625C639.059 63.5625 639.239 63.1672 639.221 62.1938C639.207 61.4409 639.32 60.7309 639.473 60.6159C639.626 60.501 639.751 60.8053 639.751 61.2925C639.751 62.2817 640.61 63.9006 641.134 63.9006C641.976 63.9006 642.896 63.4506 642.896 63.0391C642.896 62.2777 643.897 62.0728 644.515 62.7081C645.207 63.4205 646.717 63.1439 646.325 62.3764C646.175 62.0816 646.322 61.872 646.68 61.872C647.016 61.872 647.408 62.1002 647.55 62.3791C647.692 62.658 648.27 62.8687 648.834 62.847C649.594 62.818 649.656 62.7679 649.072 62.6533C648.16 62.4738 648.007 61.872 648.874 61.872C649.198 61.872 649.854 62.0877 650.333 62.3511C650.947 62.6895 651.369 62.727 651.766 62.4789C652.162 62.2314 652.329 62.2442 652.329 62.5221C652.329 62.7842 652.82 62.8477 653.789 62.7115C655.348 62.492 655.877 62.4244 660.415 61.8645C662.021 61.6661 663.739 61.3641 664.233 61.1927C664.727 61.0217 665.637 60.8976 666.255 60.9172C667.86 60.9686 670.896 60.5175 671.398 60.1531C671.633 59.9827 672.208 59.8434 672.677 59.8434C673.145 59.8434 674.065 59.5594 674.72 59.2118C675.533 58.7818 676.199 58.6665 676.811 58.85C678.232 59.2764 678.827 59.2111 678.546 58.66C678.382 58.3388 678.552 58.1529 679.009 58.1529C679.406 58.1529 679.731 58.305 679.731 58.491C679.731 58.6769 680.034 58.8291 680.405 58.8291C681.201 58.8291 681.208 58.7919 680.641 57.6677C680.356 57.1041 680.356 56.8005 680.641 56.8005C680.881 56.8005 681.079 57.0287 681.079 57.3076C681.079 57.5866 681.466 57.8148 681.94 57.8148C682.413 57.8148 682.868 57.9622 682.95 58.1424C683.038 58.3344 683.957 58.2381 685.167 57.9098C686.731 57.4855 687.36 57.099 687.749 56.3224L688.264 55.296L688.948 56.0307C689.599 56.7302 689.72 56.742 691.467 56.2781C692.477 56.01 693.454 55.8613 693.639 55.9475C693.824 56.0334 693.885 55.746 693.774 55.3085C693.576 54.5271 694.577 53.6386 694.881 54.326C694.967 54.5187 695.299 54.946 695.62 55.276C696.134 55.8055 696.409 55.8274 697.961 55.4633C698.929 55.2365 700.578 54.7601 701.625 54.4044C702.673 54.0487 703.839 53.7576 704.217 53.7576C704.595 53.7576 705.705 53.3773 706.684 52.9124C707.662 52.4475 708.755 52.0671 709.113 52.0671C709.471 52.0671 710.031 51.8768 710.358 51.6445C710.684 51.4122 711.63 51.181 712.459 51.1313C713.289 51.0812 714.395 50.8151 714.918 50.5396C715.44 50.264 716.227 50.0385 716.666 50.0385C717.105 50.0385 717.465 49.8103 717.465 49.5314C717.465 49.247 717.865 49.0242 718.377 49.0242C718.879 49.0242 719.406 48.796 719.548 48.5171C719.69 48.2382 720.296 48.0099 720.893 48.0099C721.638 48.0099 722.113 47.7445 722.406 47.1647C722.824 46.3377 723.754 45.9878 723.754 46.6576C723.754 47.1576 724.62 47.068 725.39 46.4885C725.761 46.2096 726.406 45.9814 726.823 45.9814C727.242 45.9814 727.783 45.6514 728.027 45.2484C728.271 44.845 728.873 44.3507 729.366 44.1495C729.858 43.9484 730.707 43.4416 731.253 43.023C731.799 42.6048 732.407 42.2558 732.604 42.2481C732.801 42.24 733.468 41.7558 734.085 41.1716C734.703 40.5873 735.766 39.7106 736.447 39.2238C738.1 38.0421 740.726 34.0735 739.468 34.6588C738.559 35.0817 738.878 33.4836 740.037 31.8086C740.734 30.8007 741.146 29.8879 740.952 29.78C740.757 29.6718 740.598 28.5311 740.598 27.245C740.597 25.6772 740.412 24.8597 740.036 24.7654C739.728 24.6879 739.476 24.4256 739.476 24.1821C739.476 23.9384 739.192 23.6571 738.844 23.557C738.497 23.4566 738.078 22.9095 737.911 22.3412C737.746 21.7728 737.423 21.2211 737.195 21.1149C736.967 21.0091 736.773 20.5888 736.764 20.1814C736.755 19.774 736.301 19.0542 735.754 18.5819C734.392 17.4056 731.39 15.7753 731.39 16.2115C731.39 16.4069 731.087 16.5668 730.716 16.5668C730.346 16.5668 730.042 16.439 730.042 16.2831C730.042 16.1269 729.537 15.8257 728.919 15.6141C728.302 15.4021 727.791 14.9595 727.785 14.6298C727.774 14.0179 725.221 12.8477 723.897 12.8477C723.502 12.8477 722.891 12.5813 722.539 12.2561C722.1 11.8493 721.83 11.7898 721.676 12.066C721.524 12.3379 721.158 12.2466 720.542 11.7831C719.911 11.3077 719.301 11.1613 718.549 11.3033C717.941 11.4183 717.465 11.3587 717.465 11.1681C717.465 10.6163 714.243 9.2524 712.299 8.9809C711.31 8.84296 710.295 8.60122 710.041 8.444C709.111 7.86585 704.419 6.86914 701.139 6.55336C700.112 6.45463 698.615 6.24501 697.812 6.0878C696.823 5.8944 696.352 5.92145 696.352 6.17198C696.352 6.37518 695.897 6.2254 695.341 5.83862C694.707 5.3974 693.494 5.0735 692.084 4.96835C690.849 4.87605 688.827 4.63025 687.592 4.42165C686.357 4.21338 684.175 3.98347 682.744 3.91044C681.313 3.83775 679.898 3.63185 679.6 3.453C679.301 3.27414 677.642 3.11388 675.913 3.09664C672.814 3.06587 672.077 2.99656 670.747 2.61215C669.537 2.26289 665.356 2.12021 665.356 2.42822C665.356 2.59355 664.983 2.57834 664.527 2.39441C663.956 2.16451 663.536 2.18175 663.179 2.4502C662.788 2.74468 662.661 2.72473 662.661 2.36973C662.661 2.02724 662.507 2.05767 662.095 2.4813C661.458 3.13789 659.649 3.07534 659.076 2.37717C658.83 2.07795 658.241 2.00087 657.294 2.14354C656.331 2.28825 655.974 2.23922 656.179 1.98971C656.368 1.7598 656.096 1.77772 655.451 2.03772C654.599 2.38089 654.334 2.36195 653.913 1.92851C653.456 1.45856 653.351 1.46295 652.893 1.9701C652.419 2.49449 652.38 2.49246 652.356 1.94406C652.341 1.61881 652.278 1.33853 652.217 1.32163C652.155 1.30506 650.096 1.22392 647.641 1.14176C645.185 1.05926 642.929 0.837469 642.627 0.648811C642.251 0.413494 641.978 0.42668 641.761 0.690059C641.555 0.940927 640.877 0.989614 639.812 0.829693C637.03 0.411804 635.259 0.445952 635.259 0.917599C635.259 1.15663 635.057 1.35239 634.81 1.35239C634.563 1.35239 634.411 1.18132 634.473 0.972032C634.535 0.76275 634.08 0.550424 633.462 0.500047C632.845 0.449671 631.885 0.298879 631.329 0.164654C630.564 -0.0196099 630.318 0.0540955 630.318 0.46759C630.318 0.768497 630.554 1.01429 630.842 1.01429C631.13 1.01429 631.215 1.12823 631.03 1.26719C630.845 1.40649 630.439 1.25874 630.129 0.938899C629.361 0.148425 627.268 0.0929771 625.437 0.814479C624.247 1.28342 623.817 1.32163 623.416 0.993332C623.031 0.679239 623.043 0.635625 623.467 0.815493C623.812 0.96189 624.029 0.850655 624.029 0.527095C624.029 0.237345 623.771 0 623.455 0C622.757 0 620.866 0.920979 620.098 1.63538C619.61 2.08978 619.537 2.05834 619.537 1.39432C619.537 0.784388 619.356 0.67383 618.638 0.845245C617.998 0.998066 617.74 0.906103 617.74 0.524728C617.74 0.132873 617.348 0.00642373 616.28 0.0530813C615.477 0.0885816 614.493 0.237683 614.093 0.384756C613.693 0.531829 613.243 0.560229 613.094 0.447642C612.944 0.334717 610.967 0.19914 608.701 0.146058C605.585 0.073367 604.324 0.176149 603.528 0.568681C602.645 1.00415 602.438 1.01193 602.236 0.617367C601.984 0.123406 600.333 0.0368524 599.405 0.468942C599.104 0.608576 598.954 0.839836 599.072 0.982513C599.189 1.12519 599.009 1.53902 598.671 1.90146C598.148 2.46406 596.653 2.67165 595.279 2.37277C594.9 2.29028 597.275 1.58027 597.693 1.65161C597.909 1.68812 597.959 1.4714 597.805 1.16948C597.651 0.867898 597.525 0.4801 597.525 0.308346C597.525 0.126787 596.065 0.0787769 594.044 0.19373C589.938 0.427018 590.011 0.427694 588.429 0.143354C587.484 -0.0267098 587.194 0.0449669 587.194 0.447642C587.194 0.914217 587.053 0.918951 585.958 0.489228C584.267 -0.174797 580.906 -0.131858 579.573 0.57071C578.805 0.975413 578.439 1.02444 578.312 0.739759C578.051 0.150454 575.721 0.250193 575.027 0.88007C574.483 1.37302 574.365 1.36254 573.721 0.763764C573.119 0.204212 572.925 0.176149 572.428 0.577134ZM578.209 1.52144C578.209 1.80037 578.007 2.04752 577.76 2.07085C577.513 2.09418 577.102 2.13205 576.846 2.15538C576.589 2.1787 576.188 2.42585 575.954 2.70479C575.35 3.42392 575.372 2.52221 575.979 1.66818C576.527 0.897989 578.209 0.787431 578.209 1.52144ZM554.401 2.17769C554.401 2.25985 554.199 2.42078 553.952 2.53574C553.705 2.65069 553.503 2.58341 553.503 2.38663C553.503 2.18986 553.705 2.02859 553.952 2.02859C554.199 2.02859 554.401 2.09553 554.401 2.17769ZM541.169 4.03317C540.728 4.57109 540.016 4.13291 540.33 3.51656C540.503 3.17745 540.748 3.11253 541.035 3.32892C541.278 3.51115 541.338 3.82795 541.169 4.03317ZM650.981 3.55003C650.981 3.82896 650.685 4.05718 650.322 4.05718C649.92 4.05718 649.763 3.85905 649.92 3.55003C650.063 3.2711 650.36 3.04288 650.58 3.04288C650.801 3.04288 650.981 3.2711 650.981 3.55003ZM655.666 3.29646C655.443 3.43609 655.108 3.70218 654.924 3.88813C654.733 4.08118 654.586 3.97232 654.582 3.63456C654.578 3.30559 654.908 3.04288 655.324 3.04288C655.735 3.04288 655.89 3.15682 655.666 3.29646ZM539.128 4.05718C539.128 4.24313 538.926 4.39528 538.679 4.39528C538.432 4.39528 538.23 4.24313 538.23 4.05718C538.23 3.87122 538.432 3.71908 538.679 3.71908C538.926 3.71908 539.128 3.87122 539.128 4.05718ZM553.381 3.92329C553.232 4.03554 552.844 4.04771 552.52 3.95C552.162 3.84215 552.268 3.76202 552.792 3.74579C553.265 3.73125 553.53 3.81104 553.381 3.92329ZM662.661 4.42097C662.661 4.58089 662.358 4.62451 661.987 4.51767C661.617 4.41049 661.313 4.19174 661.313 4.03148C661.313 3.87156 661.617 3.82795 661.987 3.93479C662.358 4.04196 662.661 4.26071 662.661 4.42097ZM672.094 4.05718C672.094 4.24313 671.74 4.39291 671.308 4.39021C670.636 4.38581 670.62 4.33712 671.196 4.05718C672.044 3.6447 672.094 3.6447 672.094 4.05718ZM530.818 4.73337C530.97 4.91933 530.881 5.07147 530.62 5.07147C530.358 5.07147 530.144 4.91933 530.144 4.73337C530.144 4.54742 530.233 4.39528 530.342 4.39528C530.451 4.39528 530.665 4.54742 530.818 4.73337ZM648.286 4.73337C648.286 4.91933 648.072 5.07147 647.811 5.07147C647.549 5.07147 647.46 4.91933 647.612 4.73337C647.765 4.54742 647.979 4.39528 648.088 4.39528C648.197 4.39528 648.286 4.54742 648.286 4.73337ZM659.496 5.56002C659.905 5.93058 659.923 6.08577 659.557 6.08577C659.272 6.08577 658.923 5.85755 658.781 5.57862C658.638 5.29969 658.24 5.07147 657.896 5.07147C657.552 5.07147 657.27 4.91392 657.27 4.72154C657.27 4.2837 658.67 4.8108 659.496 5.56002ZM653.555 4.93759C653.406 5.04983 653.018 5.06201 652.694 4.9643C652.336 4.85644 652.442 4.77631 652.966 4.76008C653.439 4.74555 653.704 4.82534 653.555 4.93759ZM521.909 5.97318C521.323 6.41338 521.621 7.10006 522.395 7.09499C523.017 7.09093 523.052 7.02805 522.562 6.79442C522.222 6.63213 522.082 6.33021 522.252 6.12363C522.591 5.71014 522.381 5.61784 521.909 5.97318ZM670.176 6.96618C670.027 7.07842 669.639 7.09059 669.315 6.99288C668.957 6.88503 669.063 6.8049 669.586 6.78867C670.06 6.77414 670.325 6.85393 670.176 6.96618ZM671.645 7.43816C671.645 7.62411 671.443 7.77626 671.196 7.77626C670.949 7.77626 670.747 7.62411 670.747 7.43816C670.747 7.25221 670.949 7.10006 671.196 7.10006C671.443 7.10006 671.645 7.25221 671.645 7.43816ZM676.586 7.60721C676.586 7.88614 676.384 8.11436 676.137 8.11436C675.89 8.11436 675.688 7.88614 675.688 7.60721C675.688 7.32828 675.89 7.10006 676.137 7.10006C676.384 7.10006 676.586 7.32828 676.586 7.60721ZM689.164 8.30335C689.164 8.5931 688.962 8.73646 688.715 8.6215C688.468 8.50655 688.266 8.26954 688.266 8.09441C688.266 7.91927 688.468 7.77626 688.715 7.77626C688.962 7.77626 689.164 8.0136 689.164 8.30335ZM705.785 11.3263C705.785 11.6052 705.482 11.8334 705.111 11.8334C704.741 11.8334 704.438 11.6052 704.438 11.3263C704.438 11.0474 704.741 10.8191 705.111 10.8191C705.482 10.8191 705.785 11.0474 705.785 11.3263ZM721.356 14.2846C721.231 14.5173 721.129 14.3269 721.129 13.862C721.129 13.3971 721.231 13.2071 721.356 13.4394C721.481 13.672 721.481 14.0524 721.356 14.2846ZM509.705 18.2573C509.552 18.4433 509.642 18.5954 509.903 18.5954C510.164 18.5954 510.379 18.4433 510.379 18.2573C510.379 18.0713 510.29 17.9192 510.181 17.9192C510.071 17.9192 509.858 18.0713 509.705 18.2573ZM503.712 19.6097C503.712 20.0746 503.813 20.2649 503.938 20.0323C504.063 19.8 504.063 19.4197 503.938 19.1871C503.813 18.9548 503.712 19.1448 503.712 19.6097ZM494.291 20.0201C493.591 20.5469 493.608 21.0595 494.319 20.8654C494.628 20.7812 495.222 20.9354 495.639 21.2082C496.056 21.4814 496.611 21.6045 496.874 21.4824C497.514 21.1846 497.482 20.624 496.826 20.624C496.536 20.624 495.967 20.3978 495.561 20.1216C494.992 19.7338 494.702 19.7108 494.291 20.0201ZM488.249 21.5024C488.101 21.6136 488.088 21.9169 488.221 22.1769C488.414 22.5559 488.064 22.6083 486.452 22.4419C485.173 22.3101 484.33 22.3723 484.133 22.6127C483.962 22.8206 484.037 22.9907 484.298 22.9907C484.559 22.9907 484.774 23.3521 484.774 23.7937C484.774 24.4249 485.014 24.5966 485.897 24.5966C486.688 24.5966 487.02 24.4127 487.02 23.9745C487.02 23.2899 488.271 22.6573 489.154 22.8957C489.53 22.9971 489.616 22.8514 489.415 22.4565C489.209 22.0535 489.28 21.9432 489.639 22.1099C489.928 22.2445 490.164 22.2097 490.164 22.0325C490.164 21.8553 489.844 21.6183 489.454 21.5054C488.582 21.2535 488.579 21.2535 488.249 21.5024ZM491.063 22.2269C491.063 22.8504 491.893 23.0569 492.744 22.6455C493.381 22.3371 493.392 22.2959 492.802 22.4315C492.4 22.5241 491.844 22.4291 491.567 22.2205C491.194 21.9402 491.063 21.9419 491.063 22.2269ZM481.405 23.3288C481.252 23.5147 481.341 23.6669 481.603 23.6669C481.864 23.6669 482.078 23.8826 482.078 24.146C482.078 24.8401 483.116 24.9966 483.708 24.3918C484.09 24.0013 484.071 23.7656 483.628 23.4326C482.931 22.9078 481.794 22.8548 481.405 23.3288ZM478.372 24.2379C477.94 24.3231 477.586 24.6673 477.586 25.0027C477.586 25.3381 477.245 25.8216 476.829 26.0768C476.169 26.4805 476.107 26.4677 476.351 25.9771C476.518 25.6414 476.37 25.3381 475.986 25.2269C475.631 25.1244 475.34 25.188 475.34 25.3678C475.34 25.5481 475.037 25.6955 474.666 25.6955C474.296 25.6955 473.993 25.8429 473.993 26.0231C473.993 26.2029 473.71 26.2689 473.364 26.1688C472.361 25.8791 472.235 26.4822 473.152 27.1915C473.893 27.7656 473.993 27.7758 473.993 27.2761C473.993 26.9647 474.296 26.7098 474.666 26.7098C475.037 26.7098 475.34 26.9485 475.34 27.2406C475.34 28.1284 477.279 27.6801 477.635 26.7098C477.831 26.1779 477.963 26.0839 477.991 26.4562C478.041 27.1168 478.72 27.2446 479.183 26.6803C479.349 26.4782 479.862 26.3872 480.325 26.4782C481.011 26.6131 481.087 26.5339 480.739 26.0447C480.505 25.7157 480.436 25.354 480.586 25.2411C480.885 25.0159 479.894 23.981 479.441 24.0442C479.285 24.0658 478.805 24.1531 478.372 24.2379ZM481.18 25.3574C480.604 25.6373 480.62 25.686 481.292 25.6904C481.725 25.6931 482.078 25.5433 482.078 25.3574C482.078 24.9449 482.028 24.9449 481.18 25.3574ZM469.413 27.8833C467.1 29.0061 466.857 29.2942 468.041 29.5129C468.473 29.5927 468.17 29.5964 467.367 29.521C465.856 29.379 465.356 29.8595 466.631 30.2277C467.091 30.3605 467.271 30.6828 467.123 31.1091C466.994 31.4786 467.073 31.7812 467.297 31.7812C467.52 31.7812 467.704 31.4769 467.704 31.105C467.704 30.368 468.035 30.276 469.011 30.7412C469.747 31.0919 471.297 30.488 471.297 29.851C471.297 29.6083 471.624 29.515 472.084 29.6262C472.717 29.7797 472.745 29.7499 472.225 29.4724C471.699 29.1914 471.685 29.0325 472.151 28.6095C472.615 28.1889 472.61 27.9749 472.123 27.4752C471.552 26.8896 471.418 26.9096 469.413 27.8833ZM460.292 35.1622C460.447 35.3509 460.111 35.4979 459.532 35.4952C458.698 35.4908 458.627 35.4259 459.169 35.1622C460.005 34.7558 459.958 34.7558 460.292 35.1622ZM722.631 43.9528C722.783 44.1387 722.581 44.2909 722.181 44.2909C721.781 44.2909 721.579 44.1387 721.732 43.9528C721.885 43.7668 722.087 43.6147 722.181 43.6147C722.276 43.6147 722.478 43.7668 722.631 43.9528ZM714.924 47.5173C714.778 47.8044 714.562 47.9667 714.444 47.8781C714.326 47.7895 714.363 47.5545 714.526 47.3564C714.969 46.8168 715.228 46.9216 714.924 47.5173ZM713.577 49.5459C713.43 49.833 713.214 49.9953 713.096 49.9067C712.979 49.8181 713.016 49.5831 713.179 49.385C713.622 48.8454 713.88 48.9502 713.577 49.5459ZM703.09 50.7147C703.09 50.9007 702.876 51.0528 702.614 51.0528C702.353 51.0528 702.263 50.9007 702.416 50.7147C702.569 50.5288 702.783 50.3766 702.892 50.3766C703.001 50.3766 703.09 50.5288 703.09 50.7147ZM704.662 50.7147C704.815 50.9007 704.624 51.0528 704.239 51.0528C703.854 51.0528 703.539 50.9007 703.539 50.7147C703.539 50.5288 703.729 50.3766 703.962 50.3766C704.194 50.3766 704.509 50.5288 704.662 50.7147ZM674.79 57.4767C674.79 57.6626 674.587 57.8148 674.34 57.8148C674.093 57.8148 673.891 57.6626 673.891 57.4767C673.891 57.2907 674.093 57.1386 674.34 57.1386C674.587 57.1386 674.79 57.2907 674.79 57.4767ZM501.095 60.553C501.301 60.669 501.15 60.856 500.758 60.9689C500.246 61.117 500.047 60.9723 500.047 60.4526C500.047 60.0557 500.199 59.8684 500.384 60.0368C500.569 60.2048 500.889 60.4374 501.095 60.553ZM508.909 61.0619C508.76 61.1741 508.373 61.1863 508.049 61.0886C507.69 60.9807 507.797 60.9006 508.32 60.8844C508.793 60.8698 509.058 60.9496 508.909 61.0619ZM619.088 62.3791C619.088 62.6706 618.682 62.8863 618.134 62.8863C617.337 62.8863 617.273 62.8028 617.74 62.3791C618.048 62.1002 618.477 61.872 618.693 61.872C618.91 61.872 619.088 62.1002 619.088 62.3791ZM569.899 62.5482C570.052 62.7341 569.85 62.8863 569.45 62.8863C569.05 62.8863 568.848 62.7341 569.001 62.5482C569.153 62.3622 569.355 62.2101 569.45 62.2101C569.544 62.2101 569.746 62.3622 569.899 62.5482ZM552.155 62.676C552.155 62.746 551.852 62.9928 551.481 63.2244C550.929 63.5692 550.808 63.5459 550.808 63.0966C550.808 62.795 551.111 62.5482 551.481 62.5482C551.852 62.5482 552.155 62.6056 552.155 62.676ZM581.803 62.6973C581.803 62.7794 581.601 62.9404 581.354 63.0553C581.107 63.1703 580.905 63.103 580.905 62.9062C580.905 62.7094 581.107 62.5482 581.354 62.5482C581.601 62.5482 581.803 62.6151 581.803 62.6973ZM561.851 63.5625C562.201 63.5625 562.487 63.8667 562.487 64.2387C562.487 64.6106 562.372 64.9149 562.231 64.9149C561.714 64.9149 560.912 64.052 560.816 63.3934C560.761 63.0215 560.829 62.9076 560.965 63.1398C561.102 63.3725 561.501 63.5625 561.851 63.5625ZM543.171 64.2387C543.171 64.6745 543.398 64.9142 543.733 64.8303C544.042 64.7529 544.294 64.4865 544.294 64.2387C544.294 63.9908 544.042 63.7244 543.733 63.647C543.398 63.5631 543.171 63.8028 543.171 64.2387ZM571.778 64.3022C571.635 64.5717 571.528 64.4916 571.507 64.0977C571.487 63.7413 571.593 63.5418 571.743 63.6541C571.892 63.7663 571.908 64.0581 571.778 64.3022ZM573.044 65.253C573.196 65.4389 573.006 65.591 572.621 65.591C572.236 65.591 571.92 65.4389 571.92 65.253C571.92 65.067 572.111 64.9149 572.343 64.9149C572.576 64.9149 572.891 65.067 573.044 65.253Z" fill="#C6D65D"/>
<path d="M35.364 18.6L29.82 37.332L29.358 39.474L29.022 37.332L23.688 18.6H18.396L13.104 37.332L12.726 39.474L12.264 37.332L6.72 18.6H0.63L9.576 48H15.666L20.664 31.116L21.042 29.1L21.462 31.116L26.418 48H32.508L41.454 18.6H35.364ZM44.98 17.34V48H50.398V36.744C50.398 33.384 51.952 31.536 54.178 31.536C56.194 31.536 57.202 32.796 57.202 35.358V48H62.704V34.182C62.704 29.268 60.31 26.244 55.816 26.244C53.422 26.244 51.616 27.126 50.398 28.932V17.34H44.98ZM76.0499 26.244C71.1359 26.244 67.8599 29.31 67.5659 33.72H72.8579C72.8579 32.04 74.2019 30.906 76.0499 30.906C78.0239 30.906 79.0319 31.998 79.0319 34.14V34.938L73.5299 35.946C69.3719 36.618 66.9359 38.424 66.9359 42.33C66.9359 46.068 69.5399 48.462 73.4039 48.462C76.1339 48.462 78.1499 47.454 79.4939 45.396L79.8299 48H84.4919V34.014C84.4919 28.932 81.2579 26.244 76.0499 26.244ZM79.0319 39.222C79.0319 40.314 78.7799 41.238 78.2759 42.036C77.4779 43.338 76.3439 43.968 74.8739 43.968C73.3199 43.968 72.3959 43.17 72.3959 41.868C72.3959 40.65 73.1939 39.852 74.7899 39.474L79.0319 38.592V39.222ZM91.0701 21.54L91.0281 26.706H87.5421V31.662H91.0281L90.9441 41.574C90.9021 46.278 93.2121 48.294 97.9581 48.294C99.4281 48.294 100.604 48.126 101.402 47.832V43.044C100.688 43.254 99.9741 43.338 99.1761 43.338C97.1181 43.338 96.4041 42.498 96.4041 40.272L96.4881 31.662H101.402V26.706H96.5301L96.5721 21.54H91.0701ZM123.165 26.244C120.057 26.244 117.495 27.294 115.479 29.394C113.505 31.494 112.497 34.14 112.497 37.374C112.497 40.65 113.505 43.338 115.479 45.396C117.453 47.454 120.015 48.462 123.165 48.462C128.247 48.462 132.069 45.648 133.077 40.482H127.743C127.239 42.204 125.559 43.464 123.417 43.464C120.351 43.464 118.125 40.902 118.125 37.374C118.125 35.568 118.629 34.098 119.595 32.964C120.561 31.788 121.821 31.2 123.291 31.2C125.433 31.2 127.071 32.334 127.701 34.224H132.993C132.195 29.016 128.373 26.244 123.165 26.244ZM145.284 26.244C140.37 26.244 137.094 29.31 136.8 33.72H142.092C142.092 32.04 143.436 30.906 145.284 30.906C147.258 30.906 148.266 31.998 148.266 34.14V34.938L142.764 35.946C138.606 36.618 136.17 38.424 136.17 42.33C136.17 46.068 138.774 48.462 142.638 48.462C145.368 48.462 147.384 47.454 148.728 45.396L149.064 48H153.726V34.014C153.726 28.932 150.492 26.244 145.284 26.244ZM148.266 39.222C148.266 40.314 148.014 41.238 147.51 42.036C146.712 43.338 145.578 43.968 144.108 43.968C142.554 43.968 141.63 43.17 141.63 41.868C141.63 40.65 142.428 39.852 144.024 39.474L148.266 38.592V39.222ZM169.88 26.244C167.192 26.244 165.26 27.336 164.126 29.478L163.706 26.706H159.044V48H164.462V36.744C164.462 33.384 166.016 31.536 168.242 31.536C170.258 31.536 171.266 32.796 171.266 35.358V48H176.768V34.182C176.768 29.268 174.374 26.244 169.88 26.244ZM203.019 26.706L198.861 39.768L198.441 41.616L198.021 39.768L193.863 26.706H187.983L195.543 47.748L192.309 57.03H197.979L208.941 26.706H203.019ZM221.614 26.244C218.38 26.244 215.734 27.294 213.634 29.352C211.534 31.41 210.484 34.056 210.484 37.332C210.484 40.608 211.534 43.296 213.634 45.354C215.734 47.412 218.38 48.462 221.614 48.462C224.848 48.462 227.536 47.412 229.636 45.354C231.778 43.296 232.828 40.608 232.828 37.332C232.828 34.056 231.778 31.41 229.636 29.352C227.536 27.294 224.848 26.244 221.614 26.244ZM221.656 31.2C224.974 31.2 227.158 33.762 227.158 37.332C227.158 40.86 224.89 43.464 221.656 43.464C220.018 43.464 218.716 42.876 217.666 41.742C216.616 40.566 216.112 39.096 216.112 37.332C216.112 35.568 216.616 34.098 217.666 32.964C218.716 31.788 220.018 31.2 221.656 31.2ZM248.941 26.706V38.13C248.941 41.448 247.429 43.17 245.287 43.17C243.271 43.17 242.263 41.868 242.263 39.306V26.706H236.803V40.524C236.803 45.438 239.155 48.462 243.649 48.462C246.295 48.462 248.143 47.37 249.277 45.228L249.697 48H254.359V26.706H248.941ZM268.433 17.34V48H273.095L273.515 45.144C275.027 47.37 277.295 48.462 280.277 48.462C283.091 48.462 285.443 47.412 287.333 45.27C289.223 43.128 290.189 40.482 290.189 37.332C290.189 34.182 289.265 31.578 287.375 29.436C285.485 27.294 283.133 26.244 280.277 26.244C277.379 26.244 275.237 27.168 273.851 29.016V17.34H268.433ZM279.143 31.368C282.167 31.368 284.519 33.804 284.519 37.332C284.519 40.902 282.209 43.338 279.143 43.338C277.673 43.338 276.413 42.834 275.363 41.784C274.313 40.734 273.767 39.264 273.767 37.458V37.206C273.809 35.4 274.355 34.014 275.405 32.964C276.455 31.914 277.715 31.368 279.143 31.368ZM306.322 26.706V38.13C306.322 41.448 304.81 43.17 302.668 43.17C300.652 43.17 299.644 41.868 299.644 39.306V26.706H294.184V40.524C294.184 45.438 296.536 48.462 301.03 48.462C303.676 48.462 305.524 47.37 306.658 45.228L307.078 48H311.74V26.706H306.322ZM330.045 26.706L325.887 39.768L325.467 41.616L325.047 39.768L320.889 26.706H315.009L322.569 47.748L319.335 57.03H325.005L335.967 26.706H330.045ZM348.976 21.54L348.934 26.706H345.448V31.662H348.934L348.85 41.574C348.808 46.278 351.118 48.294 355.864 48.294C357.334 48.294 358.51 48.126 359.308 47.832V43.044C358.594 43.254 357.88 43.338 357.082 43.338C355.024 43.338 354.31 42.498 354.31 40.272L354.394 31.662H359.308V26.706H354.436L354.478 21.54H348.976ZM363.63 17.34V48H369.048V36.744C369.048 33.384 370.602 31.536 372.828 31.536C374.844 31.536 375.852 32.796 375.852 35.358V48H381.354V34.182C381.354 29.268 378.96 26.244 374.466 26.244C372.072 26.244 370.266 27.126 369.048 28.932V17.34H363.63ZM398.312 26.496C394.952 26.496 392.894 27.966 392.096 30.108L391.592 26.706H386.888V48H392.348V37.164C392.432 35.358 393.02 34.056 394.07 33.216C395.162 32.376 396.59 31.956 398.312 31.956V26.496ZM411.516 26.244C408.282 26.244 405.636 27.294 403.536 29.352C401.436 31.41 400.386 34.056 400.386 37.332C400.386 40.608 401.436 43.296 403.536 45.354C405.636 47.412 408.282 48.462 411.516 48.462C414.75 48.462 417.438 47.412 419.538 45.354C421.68 43.296 422.73 40.608 422.73 37.332C422.73 34.056 421.68 31.41 419.538 29.352C417.438 27.294 414.75 26.244 411.516 26.244ZM411.558 31.2C414.876 31.2 417.06 33.762 417.06 37.332C417.06 40.86 414.792 43.464 411.558 43.464C409.92 43.464 408.618 42.876 407.568 41.742C406.518 40.566 406.014 39.096 406.014 37.332C406.014 35.568 406.518 34.098 407.568 32.964C408.618 31.788 409.92 31.2 411.558 31.2ZM438.844 26.706V38.13C438.844 41.448 437.332 43.17 435.19 43.17C433.174 43.17 432.166 41.868 432.166 39.306V26.706H426.706V40.524C426.706 45.438 429.058 48.462 433.552 48.462C436.198 48.462 438.046 47.37 439.18 45.228L439.6 48H444.262V26.706H438.844ZM461.012 26.706C460.046 26.412 458.996 26.244 457.946 26.244C455.468 26.244 453.41 26.958 451.772 28.386C450.134 29.772 449.336 31.578 449.336 33.804C449.336 35.442 449.84 36.87 450.806 38.13C449.336 39.348 448.622 40.818 448.622 42.624C448.622 44.556 449.462 46.068 451.1 47.202C449.672 48.126 448.958 49.386 448.958 50.94C448.958 55.14 452.276 57.492 458.618 57.492C464.372 57.492 468.026 54.804 468.026 50.1C468.026 46.11 465.464 43.968 461.054 43.968H456.056C454.712 43.968 453.914 43.338 453.914 42.204C453.914 41.574 454.082 41.07 454.418 40.65C455.426 41.028 456.602 41.196 457.946 41.196C460.424 41.196 462.44 40.524 463.994 39.138C465.548 37.752 466.346 35.946 466.346 33.804C466.346 33.006 466.22 32.166 465.926 31.326H469.076V26.706H461.012ZM459.668 48.084C461.684 48.084 462.692 48.882 462.692 50.436C462.692 52.41 461.18 53.418 458.66 53.418C455.972 53.418 454.292 52.41 454.292 50.52C454.292 49.134 455.174 48.252 456.476 48.084H459.668ZM454.712 33.804C454.712 31.746 456.014 30.36 457.904 30.36C459.794 30.36 461.054 31.746 461.054 33.804C461.054 35.778 459.794 37.164 457.904 37.164C456.014 37.164 454.712 35.778 454.712 33.804ZM472.076 17.34V48H477.494V36.744C477.494 33.384 479.048 31.536 481.274 31.536C483.29 31.536 484.298 32.796 484.298 35.358V48H489.8V34.182C489.8 29.268 487.406 26.244 482.912 26.244C480.518 26.244 478.712 27.126 477.494 28.932V17.34H472.076ZM501.099 18.6V23.976H510.675V48H516.429V23.976H526.005V18.6H501.099ZM534.809 26.244C531.575 26.244 528.929 27.294 526.829 29.352C524.729 31.41 523.679 34.056 523.679 37.332C523.679 40.608 524.729 43.296 526.829 45.354C528.929 47.412 531.575 48.462 534.809 48.462C538.043 48.462 540.731 47.412 542.831 45.354C544.973 43.296 546.023 40.608 546.023 37.332C546.023 34.056 544.973 31.41 542.831 29.352C540.731 27.294 538.043 26.244 534.809 26.244ZM534.851 31.2C538.169 31.2 540.353 33.762 540.353 37.332C540.353 40.86 538.085 43.464 534.851 43.464C533.213 43.464 531.911 42.876 530.861 41.742C529.811 40.566 529.307 39.096 529.307 37.332C529.307 35.568 529.811 34.098 530.861 32.964C531.911 31.788 533.213 31.2 534.851 31.2ZM550.377 17.34V48H555.837V43.212L558.483 39.852L563.439 48H569.655L562.305 35.652L568.563 26.706H562.053L555.837 35.316V17.34H550.377ZM572.974 17.34V48H578.392V36.744C578.392 33.384 579.946 31.536 582.172 31.536C584.188 31.536 585.196 32.796 585.196 35.358V48H590.698V34.182C590.698 29.268 588.304 26.244 583.81 26.244C581.416 26.244 579.61 27.126 578.392 28.932V17.34H572.974ZM607.992 26.706V38.13C607.992 41.448 606.48 43.17 604.338 43.17C602.322 43.17 601.314 41.868 601.314 39.306V26.706H595.854V40.524C595.854 45.438 598.206 48.462 602.7 48.462C605.346 48.462 607.194 47.37 608.328 45.228L608.748 48H613.41V26.706H607.992ZM642.173 26.244C639.317 26.244 637.091 27.798 636.041 29.982C634.991 27.504 632.933 26.244 629.951 26.244C627.305 26.244 625.415 27.336 624.281 29.478L623.861 26.706H619.199V48H624.617V36.744C624.617 33.342 626.171 31.536 628.355 31.536C630.329 31.536 631.337 32.796 631.337 35.358V48H636.797V36.492C636.839 33.258 638.393 31.536 640.535 31.536C642.509 31.536 643.517 32.796 643.517 35.358V48H648.977V34.182C648.977 29.268 646.583 26.244 642.173 26.244ZM669.551 26.076C669.551 23.598 668.711 21.624 666.989 20.196C665.267 18.726 663.167 18.012 660.647 18.012C658.127 18.012 656.027 18.768 654.305 20.322C652.625 21.834 651.743 23.892 651.701 26.538H656.867C656.867 23.892 658.379 22.38 660.731 22.38C662.915 22.38 664.343 23.766 664.343 26.286C664.343 31.494 657.623 31.914 657.623 37.794V39.054H663.125V38.046C663.125 35.862 665.477 34.434 667.241 32.502C668.543 31.158 669.551 28.89 669.551 26.076ZM660.395 41.868C658.421 41.868 656.993 43.254 656.993 45.144C656.993 47.034 658.421 48.462 660.395 48.462C662.243 48.462 663.755 46.992 663.755 45.144C663.755 43.296 662.243 41.868 660.395 41.868Z" fill="#282727"/>
</svg>
