<svg width="48" height="48" viewBox="0 0 48 48" fill="none" xmlns="http://www.w3.org/2000/svg">
<rect width="48" height="48" rx="24" fill="#C6D65D" fill-opacity="0.2"/>
<path d="M24 26.625C25.4497 26.625 26.625 25.4497 26.625 24C26.625 22.5503 25.4497 21.375 24 21.375C22.5503 21.375 21.375 22.5503 21.375 24C21.375 25.4497 22.5503 26.625 24 26.625Z" stroke="#C6D65D" stroke-width="2" stroke-linecap="round" stroke-linejoin="round"/>
<path d="M22.7812 21.675C22.0969 20.2313 21.375 18.4313 21.375 17.25C21.375 16.5538 21.6516 15.8861 22.1438 15.3938C22.6361 14.9016 23.3038 14.625 24 14.625C24.6962 14.625 25.3639 14.9016 25.8562 15.3938C26.3484 15.8861 26.625 16.5538 26.625 17.25C26.625 18.4313 25.9031 20.2313 25.2188 21.675" stroke="#C6D65D" stroke-width="2" stroke-linecap="round" stroke-linejoin="round"/>
<path d="M21.375 23.8875C19.7813 23.7657 17.8594 23.4844 16.8375 22.8938C16.2758 22.5263 15.8762 21.9575 15.7209 21.3045C15.5656 20.6514 15.6664 19.9637 16.0025 19.3827C16.3386 18.8016 16.8846 18.3714 17.5281 18.1805C18.1717 17.9896 18.8639 18.0525 19.4625 18.3563C20.4844 18.9375 21.6844 20.4657 22.5938 21.7875" stroke="#C6D65D" stroke-width="2" stroke-linecap="round" stroke-linejoin="round"/>
<path d="M22.5937 26.2125C21.6844 27.5344 20.4844 29.0625 19.4625 29.6438C19.1639 29.8392 18.8286 29.9716 18.477 30.033C18.1255 30.0944 17.7652 30.0835 17.418 30.0009C17.0708 29.9184 16.7441 29.7659 16.4579 29.5528C16.1716 29.3397 15.9319 29.0705 15.7532 28.7616C15.5745 28.4528 15.4606 28.1107 15.4186 27.7563C15.3766 27.402 15.4072 27.0427 15.5087 26.7006C15.6102 26.3585 15.7804 26.0407 16.0088 25.7666C16.2373 25.4924 16.5193 25.2678 16.8375 25.1063C17.8594 24.5157 19.7812 24.2344 21.375 24.1125" stroke="#C6D65D" stroke-width="2" stroke-linecap="round" stroke-linejoin="round"/>
<path d="M25.2188 26.325C25.9031 27.7687 26.625 29.5687 26.625 30.75C26.625 31.4461 26.3484 32.1138 25.8562 32.6061C25.3639 33.0984 24.6962 33.375 24 33.375C23.3038 33.375 22.6361 33.0984 22.1438 32.6061C21.6516 32.1138 21.375 31.4461 21.375 30.75C21.375 29.5687 22.0969 27.7687 22.7812 26.325" stroke="#C6D65D" stroke-width="2" stroke-linecap="round" stroke-linejoin="round"/>
<path d="M26.625 24.1125C28.2187 24.2344 30.1406 24.5157 31.1625 25.1063C31.7242 25.4738 32.1238 26.0425 32.2791 26.6956C32.4344 27.3486 32.3336 28.0364 31.9975 28.6174C31.6614 29.1984 31.1154 29.6286 30.4719 29.8195C29.8283 30.0104 29.1361 29.9475 28.5375 29.6438C27.5156 29.0625 26.3156 27.5344 25.4062 26.2125" stroke="#C6D65D" stroke-width="2" stroke-linecap="round" stroke-linejoin="round"/>
<path d="M25.4062 21.7875C26.3156 20.4657 27.5156 18.9375 28.5375 18.3563C29.1361 18.0525 29.8283 17.9896 30.4719 18.1805C31.1154 18.3714 31.6614 18.8016 31.9975 19.3827C32.3336 19.9637 32.4344 20.6514 32.2791 21.3045C32.1238 21.9575 31.7242 22.5263 31.1625 22.8938C30.1406 23.4844 28.2187 23.7657 26.625 23.8875" stroke="#C6D65D" stroke-width="2" stroke-linecap="round" stroke-linejoin="round"/>
</svg>
