<svg width="48" height="48" viewBox="0 0 48 48" fill="none" xmlns="http://www.w3.org/2000/svg">
<rect width="48" height="48" rx="24" fill="#C6D65D" fill-opacity="0.2"/>
<path d="M15.75 32.25H32.25" stroke="#C6D65D" stroke-width="2" stroke-linecap="round" stroke-linejoin="round"/>
<path d="M21 32.25V24.375H19.875C18.3832 24.375 16.9524 23.7824 15.8975 22.7275C14.8426 21.6726 14.25 20.2418 14.25 18.75V18.75C14.2525 18.2535 14.4508 17.778 14.8019 17.4269C15.153 17.0758 15.6285 16.8775 16.125 16.875C16.6215 16.8775 17.097 17.0758 17.4481 17.4269C17.7992 17.778 17.9975 18.2535 18 18.75C18.0025 19.2465 18.2008 19.722 18.5519 20.0731C18.903 20.4242 19.3785 20.6225 19.875 20.625H21V17.25C21 16.4544 21.3161 15.6913 21.8787 15.1287C22.4413 14.5661 23.2044 14.25 24 14.25V14.25C24.7956 14.25 25.5587 14.5661 26.1213 15.1287C26.6839 15.6913 27 16.4544 27 17.25V24.375H28.125C28.6215 24.3725 29.097 24.1742 29.4481 23.8231C29.7992 23.472 29.9975 22.9965 30 22.5V22.5C30.0025 22.0035 30.2008 21.528 30.5519 21.1769C30.903 20.8258 31.3785 20.6275 31.875 20.625C32.3715 20.6275 32.847 20.8258 33.1981 21.1769C33.5492 21.528 33.7475 22.0035 33.75 22.5V22.5C33.75 23.9918 33.1574 25.4226 32.1025 26.4775C31.0476 27.5324 29.6168 28.125 28.125 28.125H27V32.25" stroke="#C6D65D" stroke-width="2" stroke-linecap="round" stroke-linejoin="round"/>
</svg>
