<svg width="48" height="48" viewBox="0 0 48 48" fill="none" xmlns="http://www.w3.org/2000/svg">
<rect width="48" height="48" rx="24" fill="#C6D65D" fill-opacity="0.2"/>
<path d="M24 30.75C24 30.75 27.75 28.7063 27.75 23.25C27.75 18.975 25.4438 16.8 24.45 16.05C24.3196 15.9541 24.1619 15.9023 24 15.9023C23.8381 15.9023 23.6804 15.9541 23.55 16.05C22.5562 16.8 20.25 18.975 20.25 23.25C20.25 28.7063 24 30.75 24 30.75Z" stroke="#C6D65D" stroke-width="2" stroke-linecap="round" stroke-linejoin="round"/>
<path d="M24 30.75C25.125 30.5062 28.1531 28.8 29.9719 25.65C31.7906 22.5 31.3406 19.9969 30.9844 18.9C30.9299 18.7236 30.8107 18.5743 30.6507 18.4821C30.4907 18.39 30.3018 18.3617 30.1219 18.4031C29.0455 18.6442 28.0385 19.1284 27.1781 19.8187" stroke="#C6D65D" stroke-width="2" stroke-linecap="round" stroke-linejoin="round"/>
<path d="M20.8219 19.8187C19.9615 19.1284 18.9545 18.6442 17.8781 18.4031C17.6982 18.3617 17.5093 18.39 17.3493 18.4821C17.1893 18.5743 17.0701 18.7236 17.0156 18.9C16.6594 19.9969 16.2094 22.5094 18.0281 25.65C19.8469 28.7906 22.875 30.5062 24 30.75" stroke="#C6D65D" stroke-width="2" stroke-linecap="round" stroke-linejoin="round"/>
<path d="M24 30.75C25.5 30.75 27.9188 30.7313 30.7781 29.0813C33.6375 27.4313 34.5563 25.3781 34.8469 24.3188C34.8736 24.2233 34.881 24.1235 34.8685 24.0252C34.8559 23.9269 34.8238 23.8321 34.774 23.7464C34.7241 23.6607 34.6576 23.5859 34.5784 23.5264C34.4991 23.4669 34.4087 23.4239 34.3125 23.4C33.6281 23.2219 32.4563 23.0625 30.9563 23.4094" stroke="#C6D65D" stroke-width="2" stroke-linecap="round" stroke-linejoin="round"/>
<path d="M17.0438 23.4094C15.5438 23.0625 14.3719 23.2219 13.6875 23.4C13.5913 23.4239 13.5009 23.4669 13.4216 23.5264C13.3424 23.5859 13.2759 23.6607 13.226 23.7464C13.1762 23.8321 13.1441 23.9269 13.1315 24.0252C13.119 24.1235 13.1264 24.2233 13.1531 24.3188C13.4438 25.3781 14.3719 27.4406 17.2219 29.0813C20.0719 30.7219 22.5 30.75 24 30.75" stroke="#C6D65D" stroke-width="2" stroke-linecap="round" stroke-linejoin="round"/>
</svg>
