<svg width="464" height="50" viewBox="0 0 464 50" fill="none" xmlns="http://www.w3.org/2000/svg">
<path fill-rule="evenodd" clip-rule="evenodd" d="M78.7572 0.384756C78.4866 0.606774 78.2669 0.63044 78.0072 0.464998C77.4998 0.141776 75.2504 0.993333 74.8905 1.64474C74.6852 2.01597 74.6617 1.92175 74.7968 1.27125L74.9778 0.40121L73.6905 0.574316C71.8079 0.827664 71.2621 0.854938 70.9384 0.71181C70.5206 0.527208 68.6437 0.680704 68.2454 0.932024C68.0233 1.07222 67.8623 1.04585 67.7774 0.854712C67.6734 0.620974 67.4569 0.617593 66.6813 0.837131C66.0224 1.02354 65.5423 1.03976 65.1731 0.888297C64.76 0.718571 64.49 0.77447 64.0344 1.12406C63.5376 1.50521 63.2271 1.55503 62.1916 1.42069C61.5065 1.33166 60.8138 1.29266 60.6522 1.33391C60.4906 1.37493 59.6313 1.43985 58.7426 1.47794C56.1745 1.58816 56.0987 1.59672 56.0987 1.77817C56.0987 1.87306 55.6821 1.90349 55.1727 1.84624C54.3448 1.75293 54.2641 1.79305 54.4106 2.22333C54.5208 2.54656 54.4389 2.70479 54.1615 2.70479C53.9344 2.70479 53.7485 2.55264 53.7485 2.36669C53.7485 2.14129 53.4547 2.02859 52.8672 2.02859C52.358 2.02859 51.9858 2.1476 51.9858 2.31034C51.9855 2.48435 51.5308 2.60358 50.7958 2.62229C49.4418 2.65655 49.0131 2.85828 49.6442 3.16437C49.9368 3.30638 49.9579 3.37512 49.7091 3.3776C49.5073 3.3794 49.3419 3.53313 49.3419 3.71908C49.3419 3.90503 49.1436 4.05718 48.9012 4.05718C48.6588 4.05718 48.4605 3.90503 48.4605 3.71908C48.4605 3.53313 48.5927 3.38098 48.7543 3.38098C48.9159 3.38098 49.0481 3.27955 49.0481 3.15558C49.0481 2.81568 48.2523 2.8851 48.0745 3.24033C47.9799 3.42922 47.6447 3.51036 47.2179 3.4477C46.5698 3.35281 46.5257 3.4051 46.6371 4.13652C46.7517 4.88913 47.4788 5.41611 47.8495 5.01512C47.9432 4.91392 48.3836 4.81317 48.8278 4.79153C49.2719 4.76989 49.801 4.74059 50.0029 4.72639C50.205 4.71219 50.6674 4.77057 51.0311 4.85599C51.5246 4.97207 51.6921 4.92046 51.6921 4.65246C51.6921 4.36056 51.8322 4.33464 52.4456 4.51361C53.5796 4.84427 54.6298 4.78747 54.6298 4.39528C54.6298 4.18498 54.9071 4.05718 55.3642 4.05718C55.7934 4.05718 56.0987 4.18678 56.0987 4.36868C56.0987 4.79558 58.4227 4.82263 58.6348 4.39821C58.7194 4.22916 59.1419 4.09617 59.5734 4.10248C61.0685 4.12457 61.3866 4.0556 61.3866 3.70916C61.3866 3.5178 61.552 3.3776 61.7538 3.39789C61.9559 3.41795 62.423 3.42246 62.7923 3.40758C63.3672 3.38481 63.4189 3.31697 63.1528 2.93537C62.8993 2.57157 62.9242 2.51387 63.2894 2.62116C63.5356 2.69374 63.7368 2.89435 63.7368 3.067C63.7368 3.23966 63.921 3.38098 64.146 3.38098C64.3711 3.38098 64.6305 3.53155 64.7227 3.71547C64.9683 4.20684 68.5112 4.07634 69.3182 3.5462C69.939 3.13845 70.6458 3.00975 70.3676 3.35529C70.2792 3.46506 70.5388 3.60345 70.9448 3.66318C71.3505 3.72269 71.7548 3.68189 71.8429 3.57257C71.931 3.46303 72.1261 3.43192 72.2765 3.50337C72.4269 3.5746 72.55 3.52546 72.55 3.39428C72.55 3.2631 72.8223 3.15558 73.1549 3.15558C73.4875 3.15558 73.6781 3.25701 73.5782 3.38098C73.4666 3.5196 73.8838 3.59331 74.6626 3.57257C75.5069 3.55003 75.6649 3.50788 75.1367 3.44612C74.5724 3.38008 74.3943 3.25476 74.5165 3.0102C74.6109 2.82154 74.7689 2.75167 74.8676 2.8549C75.1455 3.14589 76.3141 3.60638 76.7751 3.60638C77.0025 3.60638 77.7974 3.16528 78.5415 2.6259C79.4678 1.95466 79.8944 1.76172 79.8944 2.01394C79.8944 2.21635 79.4954 2.56301 79.0078 2.7839C78.0098 3.23628 78.0941 3.60638 79.1946 3.60638C79.6644 3.60638 79.8553 3.51487 79.7246 3.35258C79.578 3.17069 79.6685 3.16235 80.0427 3.32305C80.704 3.60706 81.657 3.42606 81.657 3.01651C81.657 2.84521 81.7892 2.70479 81.9508 2.70479C82.1124 2.70479 82.2446 2.84002 82.2446 3.00524C82.2446 3.47678 85.7046 3.42291 85.8706 2.94889C85.9734 2.65475 86.0014 2.66128 86.0296 2.98653C86.0689 3.44094 86.6653 3.5054 87.18 3.1105C87.4473 2.90539 87.5325 2.90426 87.5325 3.10577C87.5325 3.40059 92.6918 3.38774 93.3096 3.09157C93.4976 3.00118 93.7188 3.05483 93.8011 3.21058C93.9156 3.42674 94.0208 3.41637 94.2476 3.1664C94.4106 2.98631 94.48 2.75933 94.4015 2.66173C94.3231 2.56436 94.4638 2.54498 94.7147 2.61868C94.9656 2.69261 95.1706 2.87248 95.1706 3.01877C95.1706 3.30931 95.7317 3.37557 97.9615 3.34852C98.7694 3.33861 100.488 3.35371 101.781 3.38188C105.898 3.47182 106.152 3.46122 106.268 3.19525C106.346 3.01426 106.516 3.03725 106.819 3.27031C107.372 3.69451 109.191 3.7033 110.487 3.28789C111.343 3.01358 111.559 3.01358 112.048 3.28789C112.742 3.67738 113.348 3.71322 112.856 3.3359C112.376 2.96783 112.413 2.70479 112.944 2.70479C113.186 2.70479 113.385 2.85693 113.385 3.04288C113.385 3.22884 113.616 3.38932 113.899 3.39924C114.181 3.40938 114.809 3.44161 115.294 3.47092C115.779 3.50022 116.273 3.41592 116.391 3.28361C116.536 3.12268 116.609 3.1362 116.612 3.32463C116.614 3.47971 116.913 3.6048 117.277 3.603C117.737 3.60052 117.822 3.54304 117.557 3.41389C117.251 3.2649 117.261 3.17429 117.61 2.95205C117.964 2.72687 118.103 2.76023 118.363 3.13259C118.554 3.406 118.858 3.53763 119.121 3.4601C119.364 3.38887 119.725 3.4335 119.925 3.55927C120.517 3.93141 121.485 3.96657 122.006 3.63501C122.322 3.43418 122.492 3.41434 122.492 3.57888C122.492 3.84733 123.441 3.92983 123.755 3.68865C124.178 3.3643 126.285 3.38549 126.526 3.7166C126.782 4.0671 128.04 4.16402 129.92 3.97806C130.532 3.91743 131.424 3.95417 131.903 4.05943C132.382 4.16492 132.774 4.16943 132.774 4.06958C132.774 3.96972 133.104 3.88813 133.508 3.88813C133.912 3.88813 134.243 4.0157 134.243 4.17168C134.243 4.51046 135.349 4.77868 135.482 4.47214C135.533 4.3547 136.068 4.17326 136.672 4.0689C137.655 3.89872 137.768 3.92577 137.768 4.33149C137.768 4.73157 137.894 4.76538 138.87 4.62563C139.476 4.53886 139.869 4.54697 139.744 4.64367C139.414 4.89837 141.369 5.36629 141.781 5.13143C141.981 5.0176 142.201 5.03496 142.313 5.17313C142.417 5.30318 143.002 5.40957 143.612 5.40957C144.222 5.40957 144.816 5.4826 144.932 5.57186C145.261 5.82431 148.153 5.82949 148.564 5.57862C148.828 5.41746 148.931 5.46051 148.931 5.73121C148.931 6.03257 149.211 6.10515 150.327 6.09321C151.094 6.08487 152.166 6.14369 152.71 6.22394C153.348 6.31815 153.774 6.27375 153.915 6.09839C154.083 5.89035 154.23 5.89733 154.544 6.12814C155.139 6.56564 156.478 6.9824 156.711 6.80321C157.076 6.52282 158.312 6.62289 158.474 6.94612C158.599 7.19608 158.723 7.20622 159.057 6.99345C159.481 6.72365 160.221 6.87421 159.974 7.17985C159.86 7.32163 160.689 7.35296 161.784 7.24792C161.986 7.22854 162.162 7.03515 162.174 6.81831C162.193 6.50298 162.232 6.49171 162.369 6.76196C162.463 6.94792 162.737 7.21141 162.978 7.34755C163.219 7.48369 163.329 7.70255 163.224 7.83374C163.105 7.98137 163.245 8.02961 163.592 7.95996C163.9 7.8982 164.633 8.02262 165.22 8.2363C165.807 8.4502 166.943 8.62534 167.745 8.62534C168.546 8.62534 169.202 8.71324 169.202 8.82053C169.202 8.92805 169.4 9.01595 169.642 9.01595C169.885 9.01595 170.083 8.9037 170.083 8.76644C170.083 8.62917 170.281 8.5753 170.524 8.64675C170.766 8.71797 170.964 8.67808 170.964 8.55817C170.964 8.19956 171.768 8.31113 171.961 8.69634C172.225 9.22332 172.206 9.24135 171.384 9.24135C170.666 9.24135 170.654 9.26073 171.14 9.63377C171.505 9.91326 171.686 9.9464 171.772 9.74872C171.854 9.56006 172.202 9.65225 172.859 10.0368C173.47 10.3945 174.012 10.5471 174.334 10.4524C174.635 10.3638 174.946 10.431 175.097 10.6172C175.237 10.7903 175.587 10.9321 175.875 10.9321C176.164 10.9323 176.416 11.0592 176.436 11.2138C176.456 11.3687 176.489 11.5805 176.509 11.6844C176.612 12.213 179.19 12.6332 179.19 12.1213C179.19 11.9698 179.396 12.0715 179.648 12.3471C179.9 12.623 180.033 12.9383 179.945 13.0479C179.731 13.3139 180.325 13.6529 181.328 13.8368C181.814 13.926 182.468 14.3453 182.944 14.8736C183.384 15.3616 183.906 15.7646 184.105 15.7694C184.304 15.7741 184.557 16.0534 184.667 16.3903C184.777 16.7271 185.111 17.2031 185.409 17.4483C185.776 17.7511 185.881 18.0429 185.735 18.3576C185.616 18.6123 185.548 19.2204 185.583 19.7086C185.619 20.1971 185.451 20.8273 185.21 21.1095C184.969 21.3917 184.772 21.778 184.772 21.9685C184.772 22.1587 184.639 22.289 184.477 22.2581C184.316 22.227 184.016 22.4554 183.811 22.7653C183.607 23.0752 183.144 23.4289 182.783 23.5512C182.423 23.6736 182.128 23.9475 182.128 24.1598C182.128 24.3724 181.941 24.6271 181.713 24.7262C181.484 24.8254 181.253 25.2109 181.199 25.5828C181.127 26.0753 180.939 26.2653 180.508 26.282C179.731 26.3122 178.343 26.8786 177.434 27.5358C177.034 27.8253 176.672 28.0396 176.63 28.0119C176.412 27.8708 173.683 28.8118 173.099 29.2295C172.894 29.3755 172.727 29.6156 172.727 29.7628C172.727 29.9161 172.485 29.9821 172.162 29.9172C171.852 29.855 171.187 29.9952 170.686 30.2291C170.185 30.4629 169.585 30.6542 169.352 30.6542C169.119 30.6542 168.439 30.9838 167.842 31.3863C167.244 31.7891 166.512 32.0869 166.216 32.0483C165.836 31.999 165.676 32.1171 165.676 32.4475C165.676 32.8433 165.554 32.8931 164.894 32.766C164.246 32.6414 164.143 32.6794 164.297 32.9871C164.421 33.2357 164.329 33.359 164.02 33.359C163.729 33.359 163.62 33.2332 163.726 33.0209C163.841 32.791 163.71 32.6828 163.317 32.6828C162.999 32.6828 162.739 32.7673 162.739 32.8706C162.739 32.974 162.574 33.0757 162.371 33.0969C159.143 33.4348 157.515 33.9117 157.395 34.5559C157.313 34.9934 157.261 35.0067 156.876 34.6884C156.439 34.328 156.424 34.3291 153.876 34.9258C153.283 35.0646 152.303 35.2269 151.697 35.2862C151.092 35.3457 150.445 35.4913 150.259 35.6096C150.073 35.728 149.136 35.8914 148.177 35.9727C147.21 36.0548 145.816 36.3733 145.047 36.6884C143.932 37.1441 143.574 37.2021 143.229 36.9823C142.915 36.7824 142.642 36.7736 142.213 36.9498C141.89 37.0824 141.174 37.1908 140.623 37.1908C140.072 37.1908 139.211 37.3477 138.71 37.5395C138.149 37.7543 136.649 37.9308 134.805 37.9989C133.159 38.0597 131.584 38.2033 131.305 38.318C131.025 38.4325 129.887 38.5427 128.774 38.563C127.662 38.5833 126.219 38.7355 125.569 38.9014C124.919 39.067 123.531 39.221 122.485 39.2435C121.153 39.2724 120.375 39.4081 119.892 39.6966C119.292 40.0543 119.146 40.066 118.78 39.7851C118.474 39.5498 118.164 39.5185 117.644 39.6702C117.251 39.7849 116.429 39.8708 115.818 39.8611C115.207 39.8514 114.574 39.8654 114.413 39.8922C114.251 39.9193 113.703 39.924 113.194 39.903C112.685 39.8821 112.182 39.9734 112.075 40.1057C111.968 40.238 111.575 40.3464 111.2 40.3464C110.825 40.3464 110.357 40.4956 110.16 40.6782C109.864 40.9518 109.734 40.9581 109.416 40.7147C108.939 40.3484 105.573 40.4397 104.952 40.8357C104.618 41.0478 104.474 41.0417 104.286 40.8069C104.105 40.5831 103.22 40.5172 100.78 40.5461C97.2115 40.5882 96.0567 40.7992 96.0431 41.4114C96.0346 41.782 96.0105 41.7804 95.715 41.39C95.4568 41.049 95.3463 41.0275 95.1363 41.2773C94.9327 41.5196 94.8413 41.4871 94.7118 41.1258C94.5995 40.8134 94.2693 40.6493 93.6835 40.6151C93.2088 40.5873 92.8204 40.6543 92.8204 40.764C92.8204 40.8738 92.4238 40.9279 91.9391 40.8846C91.4544 40.8414 91.0578 40.8979 91.0578 41.0104C91.0578 41.3027 90.1577 41.4141 89.2708 41.2318C88.7 41.1143 88.4265 41.1808 88.1668 41.5C87.9767 41.7333 87.5977 41.9242 87.3245 41.9242C86.9379 41.9242 86.9059 41.864 87.18 41.6537C87.9273 41.0803 87.5205 40.9101 85.4711 40.9385C84.3374 40.9541 83.3409 40.8819 83.2572 40.7778C83.0339 40.5006 81.7055 41.0246 81.5577 41.4484C81.4561 41.7409 81.4246 41.731 81.3973 41.3972C81.3668 41.0273 81.1191 40.9892 79.0865 41.0435C77.8344 41.0769 76.5169 41.1835 76.159 41.2802C75.776 41.3839 75.4317 41.3607 75.3215 41.2241C75.2187 41.0963 74.9328 41.0512 74.6864 41.1238C74.4399 41.1964 74.0897 41.1673 73.9081 41.0591C72.9554 40.4911 71.6954 40.6912 71.2988 41.4734C71.1628 41.7421 71.1229 41.7297 71.1044 41.4134C71.0879 41.1314 70.8458 41.0181 70.2733 41.0248C69.8291 41.0298 69.139 41.0061 68.7401 40.9719C67.9407 40.9036 67.5006 41.6194 68.1522 41.9282C68.3502 42.0222 68.4216 42.212 68.3106 42.3497C68.0191 42.7115 67.5559 42.6578 67.5559 42.2623C67.5559 42.0763 67.419 41.9242 67.2518 41.9242C67.0506 41.9242 67.0594 41.7639 67.2782 41.4502C67.5967 40.9935 67.5544 40.9793 66.1131 41.0557C64.9912 41.1154 64.6178 41.058 64.6178 40.826C64.6181 40.5765 64.5326 40.5709 64.1775 40.7972C63.9101 40.9674 63.7368 40.9854 63.7368 40.8429C63.7368 40.7054 62.9756 40.6069 61.9007 40.6054C60.891 40.6038 58.5887 40.5686 56.7852 40.5274C54.9815 40.4864 53.5669 40.529 53.6421 40.6223C53.8243 40.8481 52.8918 40.5772 52.0305 40.1537C51.5302 39.908 51.2073 39.8787 50.8554 40.0471C50.5848 40.1767 50.1101 40.2015 49.7825 40.1034C48.9171 39.844 46.7149 39.8631 45.4088 40.1415C44.5481 40.3247 44.2129 40.3182 44.0489 40.1149C43.9253 39.9612 43.088 39.8313 42.1065 39.8138C40.6773 39.7883 40.2687 39.8697 39.7208 40.29C38.8985 40.9209 38.3324 40.9631 38.8259 40.3565C39.2419 39.8455 38.922 39.4603 38.4085 39.8543C37.9023 40.2427 37.4537 40.1814 37.8847 39.7829C38.0859 39.5969 38.2011 39.4396 38.1408 39.4333C38.0809 39.4272 37.1958 39.3657 36.1743 39.2967C34.5089 39.1842 34.2392 39.2259 33.5624 39.7024L32.8077 40.2337L33.0016 39.6138C33.2128 38.9385 33.2322 38.9464 31.2013 38.8804C30.5145 38.8578 29.9528 38.9322 29.9528 39.0456C29.9528 39.159 29.7451 39.0923 29.4913 38.8973C29.2371 38.7025 28.7965 38.5432 28.5118 38.5432C28.2271 38.5432 27.9099 38.4783 27.8065 38.3992C27.7034 38.3198 27.1193 38.2292 26.5092 38.1979C23.691 38.0523 21.8922 37.8402 21.532 37.6109C21.2412 37.4257 21.0171 37.439 20.6672 37.6619C20.267 37.9166 20.1366 37.9017 19.8155 37.5647C19.5306 37.2659 19.3978 37.2399 19.282 37.4606C19.161 37.691 19.0726 37.6943 18.8713 37.4766C18.73 37.324 18.3073 37.2444 17.9318 37.2999C17.5561 37.3556 16.5097 37.2016 15.606 36.958C14.7027 36.7141 13.727 36.5723 13.4386 36.6426C13.1169 36.7208 12.9121 36.6555 12.9095 36.4734C12.9059 36.2547 12.8281 36.2655 12.6133 36.5146C12.3639 36.804 12.2482 36.781 11.8102 36.3557C11.5284 36.0825 10.5381 35.6374 9.60892 35.3664C8.67971 35.0957 7.91972 34.8072 7.91972 34.7254C7.91972 34.6436 7.45702 34.6179 6.89151 34.6686C5.94614 34.7533 5.8633 34.7128 5.8633 34.1669C5.8633 33.6843 5.69438 33.5472 4.95965 33.4345C4.32187 33.3367 3.83185 33.0234 3.29395 32.3695C2.87474 31.8599 2.56304 31.4086 2.60123 31.3663C2.63972 31.3239 2.47961 31.1718 2.24547 31.0282C2.01163 30.8846 1.73754 30.185 1.63618 29.4738C1.47461 28.3365 1.52337 28.1467 2.04218 27.8981C2.36651 27.7428 2.63178 27.3864 2.63178 27.1062C2.63178 26.8263 2.75781 26.5971 2.91175 26.5971C3.06569 26.5971 3.41146 26.2421 3.67968 25.8082C3.94789 25.3743 4.35095 25.0193 4.57481 25.0193C4.79866 25.0193 4.98198 24.8915 4.98198 24.7355C4.98198 24.5793 5.24637 24.3248 5.56953 24.17C5.89268 24.0151 6.15707 23.6982 6.15707 23.4658C6.15707 23.2246 6.4247 22.9895 6.78105 22.9181C7.28282 22.8173 7.36801 22.6801 7.21613 22.2155C7.03164 21.652 7.40973 21.4131 7.77283 21.8637C7.87271 21.9877 8.06455 22.0891 8.19939 22.0891C8.56455 22.0891 8.83453 21.4109 8.58894 21.1109C8.47143 20.967 8.41297 20.672 8.45968 20.4549C8.50609 20.2381 8.39593 20.0605 8.21467 20.0605C8.03341 20.0605 7.96437 20.159 8.06132 20.2794C8.15826 20.3997 7.9065 20.5618 7.50168 20.6398C7.09686 20.7178 6.68587 20.9743 6.58833 21.2098C6.49109 21.4456 6.2881 21.6383 6.13739 21.6383C5.98669 21.6383 5.8633 21.7618 5.8633 21.9128C5.8633 22.0638 5.51165 22.4193 5.08215 22.7026C4.65236 22.9857 4.15588 23.4455 3.97903 23.7239C3.80218 24.0025 3.23108 24.3825 2.71022 24.5685C2.18848 24.7546 1.76045 25.0806 1.75693 25.294C1.75281 25.5449 1.59506 25.6355 1.3098 25.5517C0.798634 25.4011 0.754568 25.6601 1.15351 26.4657C1.38912 26.9406 1.33683 27.0812 0.851513 27.2805C0.528949 27.413 0.346222 27.6219 0.445517 27.7452C0.544813 27.8683 0.457268 28.125 0.251039 28.3157C-0.0277527 28.5736 -0.0412661 28.7636 0.198747 29.0586C0.396457 29.3012 0.419665 29.5782 0.259265 29.7727C-0.0979647 30.2057 -0.0818071 31.3304 0.281592 31.3304C0.443167 31.3304 0.585942 31.6095 0.598574 31.9503C0.611206 32.2911 0.688469 32.4435 0.769844 32.2884C0.962266 31.923 1.40087 31.923 1.35916 32.2884C1.30481 32.764 2.4232 34.2606 2.83302 34.2606C3.04542 34.2606 3.21933 34.4033 3.21933 34.5775C3.21933 34.7766 3.42439 34.8534 3.76957 34.7842C4.14619 34.7087 4.52281 34.8929 4.96464 35.3689C5.31923 35.7512 5.86506 36.0638 6.17705 36.0638C6.48933 36.0638 6.74462 36.216 6.74462 36.4019C6.74462 36.5879 6.94292 36.74 7.18528 36.74C7.42765 36.74 7.62594 36.85 7.62594 36.9841C7.62594 37.1184 7.79134 37.1818 7.99316 37.125C8.19528 37.0682 8.32895 36.9113 8.29046 36.7763C8.25198 36.6413 8.41737 36.5888 8.65768 36.6595C8.89799 36.7303 9.09482 36.9181 9.09482 37.0765C9.09482 37.3578 10.7731 38.0924 11.4159 38.0924C11.5937 38.0924 11.7388 38.1785 11.7388 38.2835C11.7388 38.3886 12.1486 38.4835 12.6498 38.4945C13.1507 38.5053 13.7961 38.678 14.084 38.8779C14.4353 39.1218 14.8601 39.1926 15.3763 39.0932C15.8275 39.0064 16.1454 39.0397 16.1454 39.1739C16.1454 39.2996 16.4098 39.3494 16.7329 39.2848C17.396 39.1515 17.5035 38.8628 16.9533 38.6924C16.7514 38.63 16.8836 38.5707 17.247 38.561C17.6292 38.5506 17.908 38.6764 17.908 38.8592C17.908 39.2356 19.5441 39.7723 20.4786 39.7024C20.842 39.6754 21.1396 39.7475 21.1396 39.8629C21.1396 40.2116 22.0679 40.3716 22.4988 40.0973C22.8111 39.8983 22.9022 39.9188 22.9022 40.1882C22.9022 40.451 23.3508 40.5668 24.7383 40.6624C25.7483 40.732 26.951 40.778 27.4116 40.7649C28.166 40.7433 28.2327 40.6786 28.0853 40.1131C27.9701 39.6715 28.0556 39.4461 28.3737 39.3524C29.06 39.1504 29.1505 39.1869 28.9516 39.5848C28.8112 39.8656 28.9058 39.9224 29.3608 39.8311C30.1152 39.6799 30.1211 39.9283 29.3732 40.3419C28.8394 40.6371 28.8309 40.694 29.2633 41.0607C29.5947 41.3415 29.8782 41.3992 30.226 41.2565C30.5054 41.1416 30.8967 41.1384 31.1296 41.2489C31.3556 41.3559 31.6349 41.399 31.7501 41.3442C31.8655 41.2895 32.3344 41.355 32.7924 41.4901C33.2504 41.6251 34.2859 41.7808 35.0938 41.8365C35.9017 41.8919 36.8106 41.9961 37.1135 42.0678C37.4722 42.1525 37.5944 42.1108 37.4634 41.9483C37.162 41.5741 37.7575 41.6478 38.1785 42.0369C38.6949 42.5145 39.0598 42.4563 39.0598 41.8967C39.0598 41.5466 39.1585 41.4774 39.427 41.6384C39.6291 41.7596 40.224 41.9697 40.749 42.1052C41.645 42.3364 41.7037 42.3191 41.7037 41.8261C41.7037 41.4903 41.9156 41.2581 42.2904 41.1828C42.7519 41.0902 42.823 41.1391 42.6238 41.4123C42.1802 42.0202 43.2458 42.5754 44.8451 42.5699C45.6218 42.5672 46.8198 42.6639 47.5075 42.7845C48.2376 42.9125 48.8254 42.92 48.9203 42.8021C49.0096 42.6912 48.9426 42.6004 48.7717 42.6004C48.6007 42.6004 48.4605 42.5213 48.4605 42.4243C48.4605 42.146 50.1242 41.738 50.5111 41.9215C50.7402 42.0301 50.6245 42.1379 50.1747 42.235L49.4888 42.3829L50.1574 42.8143C51.0064 43.362 55.1527 43.4425 55.4159 42.9164C55.626 42.4965 56.0987 42.5118 56.0987 42.9385C56.0987 43.1463 56.3739 43.2766 56.8134 43.2766C57.4148 43.2766 57.5244 43.1709 57.5035 42.6116C57.4856 42.1257 57.3196 41.9285 56.8872 41.8791C56.3713 41.82 56.3522 41.7756 56.7394 41.5311C57.1148 41.2937 57.2917 41.4125 57.8895 42.3046L58.5958 43.3586L58.7623 42.6977C58.854 42.3342 58.8264 41.8135 58.7015 41.5405C58.5252 41.156 58.5705 41.0726 58.9022 41.1702C59.1375 41.2394 59.3322 41.4121 59.3346 41.5538C59.3372 41.708 59.4421 41.6866 59.5958 41.5009C59.9565 41.0638 60.5664 41.4211 60.3505 41.9431C60.2523 42.1807 60.3041 42.375 60.4656 42.375C60.6272 42.375 60.8434 42.5778 60.9459 42.8258C61.0485 43.0737 61.3217 43.2766 61.5532 43.2766C61.7847 43.2766 61.9742 43.378 61.9742 43.502C61.9742 43.8024 63.0382 43.7889 63.7935 43.4788C64.2585 43.2878 64.4574 43.3009 64.651 43.5351C64.8467 43.772 64.904 43.7522 64.9075 43.4456C64.9128 42.9754 65.708 42.9279 66.3576 43.3588C66.6129 43.5279 67.3173 43.7244 67.9231 43.7954C68.7824 43.896 69.0247 43.8498 69.0247 43.5854C69.0247 43.2452 69.7386 43.3054 70.7718 43.7321C71.0057 43.8288 71.4968 43.8205 71.8632 43.7134C72.263 43.5969 72.5991 43.6059 72.704 43.7359C72.9601 44.054 74.8303 44.0005 74.9748 43.671C75.0641 43.4677 75.2137 43.4555 75.5133 43.6273C75.7416 43.7585 76.6878 43.891 77.6162 43.9221C79.1088 43.9719 79.3861 43.9104 80.0169 43.3881L80.7302 42.7978L80.8262 43.3189C80.9167 43.8085 81.0383 43.8371 82.8321 43.7912C83.8824 43.7643 84.8738 43.7319 85.0354 43.7188C85.197 43.706 87.1341 43.7655 89.3404 43.8507C93.1036 43.9963 93.3604 43.98 93.4926 43.5849C93.6172 43.2132 93.6377 43.2101 93.6677 43.5583C93.6979 43.9102 94.0255 44.0526 94.6439 43.9827C95.091 43.932 103.59 43.6791 104.351 43.6938C104.795 43.7023 105.159 43.6144 105.159 43.4984C105.159 43.3708 105.429 43.3665 105.844 43.4878C106.222 43.5978 106.705 43.6045 106.92 43.5029C107.136 43.4003 107.53 43.4233 107.803 43.5545C108.11 43.7014 108.731 43.722 109.445 43.6086C110.077 43.5083 110.714 43.4485 110.861 43.4758C111.007 43.5033 111.222 43.4084 111.337 43.2653C111.496 43.0685 111.702 43.0683 112.178 43.2637C112.525 43.4062 112.93 43.4657 113.076 43.396C113.224 43.3264 114.172 43.2198 115.184 43.1596C116.195 43.0992 117.109 42.9437 117.213 42.8138C117.318 42.684 117.656 42.5814 117.965 42.5862C118.737 42.5977 119.603 42.5965 120.215 42.5835C120.497 42.5774 120.729 42.4266 120.729 42.2483C120.729 42.07 120.927 41.9242 121.17 41.9242C121.412 41.9242 121.61 42.0256 121.61 42.1496C121.61 42.2735 121.8 42.375 122.032 42.375C122.333 42.375 122.45 42.1115 122.438 41.4626C122.429 40.9606 122.504 40.4873 122.604 40.4106C122.704 40.334 122.785 40.5368 122.785 40.8616C122.785 41.5212 123.347 42.6004 123.69 42.6004C124.24 42.6004 124.842 42.3004 124.842 42.0261C124.842 41.5185 125.497 41.3819 125.901 41.8054C126.353 42.2803 127.341 42.0959 127.085 41.5843C126.987 41.3877 127.083 41.248 127.317 41.248C127.537 41.248 127.793 41.4001 127.886 41.5861C127.979 41.772 128.357 41.9125 128.725 41.898C129.223 41.8786 129.263 41.8453 128.881 41.7689C128.284 41.6492 128.184 41.248 128.752 41.248C128.963 41.248 129.392 41.3918 129.706 41.5674C130.107 41.793 130.383 41.818 130.643 41.6526C130.902 41.4876 131.011 41.4961 131.011 41.6814C131.011 41.8561 131.332 41.8985 131.966 41.8076C132.986 41.6614 133.331 41.6163 136.299 41.243C137.349 41.1107 138.473 40.9094 138.796 40.7952C139.119 40.6811 139.714 40.5984 140.118 40.6115C141.168 40.6457 143.153 40.345 143.482 40.1021C143.635 39.9884 144.011 39.8956 144.318 39.8956C144.624 39.8956 145.226 39.7063 145.655 39.4745C146.186 39.1878 146.622 39.111 147.022 39.2334C147.951 39.5176 148.34 39.4741 148.156 39.1067C148.049 38.8926 148.16 38.7686 148.459 38.7686C148.719 38.7686 148.931 38.87 148.931 38.994C148.931 39.118 149.13 39.2194 149.372 39.2194C149.893 39.2194 149.898 39.1946 149.526 38.4451C149.34 38.0694 149.34 37.867 149.526 37.867C149.684 37.867 149.813 38.0191 149.813 38.2051C149.813 38.391 150.066 38.5432 150.376 38.5432C150.685 38.5432 150.983 38.6415 151.037 38.7616C151.094 38.8896 151.695 38.8254 152.487 38.6065C153.509 38.3237 153.92 38.066 154.175 37.5483L154.512 36.864L154.959 37.3538C155.385 37.8201 155.464 37.828 156.607 37.5188C157.267 37.34 157.906 37.2408 158.027 37.2983C158.148 37.3556 158.188 37.164 158.115 36.8723C157.985 36.3514 158.64 35.7591 158.839 36.2173C158.895 36.3458 159.112 36.6307 159.322 36.8507C159.658 37.2036 159.838 37.2183 160.854 36.9755C161.487 36.8243 162.565 36.5067 163.25 36.2696C163.935 36.0325 164.697 35.8384 164.945 35.8384C165.192 35.8384 165.918 35.5848 166.558 35.2749C167.198 34.965 167.913 34.7114 168.147 34.7114C168.381 34.7114 168.747 34.5845 168.961 34.4297C169.174 34.2748 169.792 34.1206 170.335 34.0875C170.877 34.0541 171.601 33.8768 171.943 33.6931C172.284 33.5094 172.799 33.359 173.086 33.359C173.373 33.359 173.608 33.2069 173.608 33.0209C173.608 32.8314 173.87 32.6828 174.205 32.6828C174.533 32.6828 174.878 32.5307 174.971 32.3447C175.064 32.1588 175.46 32.0066 175.85 32.0066C176.338 32.0066 176.648 31.8297 176.84 31.4431C177.113 30.8918 177.721 30.6585 177.721 31.105C177.721 31.4384 178.288 31.3787 178.791 30.9923C179.034 30.8064 179.456 30.6542 179.729 30.6542C180.002 30.6542 180.356 30.4342 180.516 30.1656C180.675 29.8967 181.069 29.5671 181.391 29.433C181.713 29.2989 182.269 28.961 182.626 28.682C182.983 28.4032 183.38 28.1706 183.509 28.1654C183.638 28.16 184.074 27.8372 184.478 27.4477C184.882 27.0582 185.577 26.4738 186.023 26.1492C187.103 25.3614 188.821 22.7157 187.998 23.1059C187.404 23.3878 187.612 22.3224 188.37 21.2057C188.826 20.5338 189.096 19.9253 188.969 19.8534C188.841 19.7812 188.737 19.0207 188.737 18.1633C188.737 17.1181 188.615 16.5731 188.37 16.5102C188.168 16.4586 188.003 16.2837 188.003 16.1214C188.003 15.9589 187.817 15.7714 187.59 15.7047C187.363 15.6377 187.089 15.273 186.98 14.8941C186.872 14.5152 186.661 14.1474 186.512 14.0766C186.363 14.0061 186.236 13.7259 186.23 13.4543C186.224 13.1827 185.927 12.7028 185.569 12.3879C184.679 11.6038 182.715 10.5169 182.715 10.8076C182.715 10.9379 182.517 11.0445 182.275 11.0445C182.032 11.0445 181.834 10.9593 181.834 10.8554C181.834 10.7513 181.504 10.5505 181.1 10.4094C180.696 10.268 180.362 9.973 180.358 9.75323C180.35 9.34526 178.681 8.56515 177.815 8.56515C177.557 8.56515 177.157 8.38754 176.927 8.17071C176.64 7.89955 176.463 7.85988 176.362 8.04403C176.263 8.22525 176.024 8.1644 175.621 7.85537C175.208 7.53846 174.81 7.44087 174.317 7.53553C173.92 7.61217 173.608 7.5725 173.608 7.44537C173.608 7.07752 171.501 6.16826 170.23 5.98727C169.584 5.89531 168.919 5.73415 168.754 5.62933C168.145 5.2439 165.077 4.57943 162.932 4.3689C162.26 4.30309 161.281 4.16334 160.756 4.05853C160.109 3.9296 159.801 3.94763 159.801 4.11466C159.801 4.25012 159.503 4.15027 159.14 3.89241C158.725 3.59827 157.932 3.38233 157.01 3.31224C156.202 3.2507 154.88 3.08684 154.072 2.94777C153.264 2.80892 151.838 2.65565 150.902 2.60696C149.966 2.5585 149.041 2.42123 148.846 2.302C148.65 2.18276 147.565 2.07592 146.434 2.06443C144.408 2.04392 143.926 1.99771 143.056 1.74143C142.265 1.50859 139.531 1.41348 139.531 1.61881C139.531 1.72903 139.286 1.71889 138.988 1.59627C138.615 1.443 138.34 1.4545 138.107 1.63347C137.851 1.82979 137.768 1.81649 137.768 1.57982C137.768 1.35149 137.667 1.37178 137.398 1.6542C136.981 2.09193 135.798 2.05023 135.423 1.58478C135.263 1.3853 134.877 1.33391 134.258 1.42903C133.628 1.5255 133.395 1.49282 133.529 1.32647C133.652 1.1732 133.475 1.18515 133.053 1.35848C132.496 1.58726 132.322 1.57464 132.047 1.28567C131.748 0.972371 131.679 0.9753 131.38 1.3134C131.07 1.66299 131.044 1.66164 131.028 1.29604C131.019 1.07921 130.978 0.892354 130.938 0.881084C130.897 0.870039 129.55 0.815944 127.945 0.761172C126.339 0.706175 124.864 0.558313 124.666 0.43254C124.42 0.275663 124.241 0.284453 124.1 0.460039C123.965 0.627285 123.522 0.659742 122.825 0.553129C121.006 0.274536 119.848 0.297301 119.848 0.611732C119.848 0.771089 119.715 0.901595 119.554 0.901595C119.392 0.901595 119.293 0.787543 119.334 0.648022C119.374 0.5085 119.076 0.366949 118.673 0.333365C118.269 0.29978 117.641 0.199252 117.277 0.109769C116.777 -0.0130732 116.616 0.0360637 116.616 0.311726C116.616 0.512331 116.77 0.676196 116.959 0.676196C117.147 0.676196 117.203 0.752156 117.082 0.844795C116.961 0.937659 116.695 0.83916 116.492 0.625933C115.99 0.0989502 114.621 0.0619847 113.424 0.542986C112.646 0.855614 112.365 0.881084 112.102 0.662222C111.851 0.452826 111.859 0.42375 112.136 0.543662C112.361 0.64126 112.503 0.567103 112.503 0.351397C112.503 0.15823 112.334 0 112.128 0C111.671 0 110.435 0.613986 109.933 1.09025C109.613 1.39319 109.566 1.37223 109.566 0.929545C109.566 0.522925 109.447 0.44922 108.978 0.563497C108.559 0.665377 108.39 0.604069 108.39 0.349819C108.39 0.0885817 108.134 0.00428249 107.436 0.0353875C106.91 0.0590544 106.267 0.158455 106.005 0.256504C105.744 0.354552 105.45 0.373486 105.352 0.298428C105.254 0.223145 103.961 0.13276 102.479 0.0973721C100.441 0.0489114 99.6166 0.117433 99.0963 0.379121C98.5188 0.669434 98.3831 0.674619 98.2514 0.411578C98.0866 0.0822706 97.007 0.0245683 96.3995 0.312628C96.203 0.405718 96.1051 0.559891 96.1818 0.655009C96.2585 0.750127 96.1407 1.02602 95.9201 1.26764C95.5775 1.64271 94.6001 1.7811 93.7018 1.58185C93.4535 1.52685 95.0067 1.05351 95.2802 1.10107C95.4212 1.12542 95.4541 0.980935 95.3537 0.779654C95.2529 0.578599 95.1706 0.320066 95.1706 0.205564C95.1706 0.0845247 94.2156 0.0525179 92.8939 0.129154C90.2085 0.284679 90.2564 0.285129 89.2217 0.095569C88.6036 -0.0178066 88.4138 0.0299779 88.4138 0.298428C88.4138 0.609478 88.3219 0.612634 87.6059 0.326152C86.4999 -0.116531 84.3016 -0.0879056 83.43 0.380473C82.9279 0.650275 82.6882 0.682958 82.6056 0.493172C82.4349 0.100302 80.9111 0.166795 80.457 0.586713C80.1015 0.915345 80.0242 0.908357 79.603 0.509176C79.2093 0.136141 79.0827 0.117433 78.7572 0.384756ZM82.5383 1.01429C82.5383 1.20025 82.4062 1.36502 82.2446 1.38057C82.083 1.39612 81.8139 1.42136 81.6464 1.43692C81.4787 1.45247 81.2164 1.61724 81.0633 1.80319C80.6682 2.28261 80.6826 1.68148 81.0798 1.11212C81.4379 0.598659 82.5383 0.524954 82.5383 1.01429ZM66.9683 1.45179C66.9683 1.50657 66.8361 1.61386 66.6745 1.69049C66.513 1.76713 66.3808 1.72227 66.3808 1.59109C66.3808 1.45991 66.513 1.35239 66.6745 1.35239C66.8361 1.35239 66.9683 1.39702 66.9683 1.45179ZM58.3149 2.68878C58.0261 3.04739 57.5608 2.75528 57.7661 2.34437C57.8792 2.1183 58.0393 2.07502 58.2274 2.21928C58.3857 2.34077 58.4251 2.55197 58.3149 2.68878ZM130.13 2.36669C130.13 2.55264 129.936 2.70479 129.698 2.70479C129.436 2.70479 129.333 2.5727 129.436 2.36669C129.529 2.18073 129.723 2.02859 129.867 2.02859C130.012 2.02859 130.13 2.18073 130.13 2.36669ZM133.193 2.19764C133.047 2.29073 132.829 2.46812 132.708 2.59209C132.583 2.72079 132.487 2.64821 132.484 2.42304C132.482 2.20372 132.697 2.02859 132.97 2.02859C133.239 2.02859 133.34 2.10455 133.193 2.19764ZM56.98 2.70479C56.98 2.82875 56.8478 2.93018 56.6862 2.93018C56.5246 2.93018 56.3924 2.82875 56.3924 2.70479C56.3924 2.58082 56.5246 2.47939 56.6862 2.47939C56.8478 2.47939 56.98 2.58082 56.98 2.70479ZM66.3012 2.61553C66.2036 2.69036 65.9501 2.69847 65.7383 2.63333C65.5039 2.56143 65.5735 2.50801 65.9157 2.49719C66.2254 2.4875 66.3987 2.5407 66.3012 2.61553ZM137.768 2.94731C137.768 3.05393 137.57 3.083 137.327 3.01178C137.085 2.94033 136.887 2.79449 136.887 2.68766C136.887 2.58104 137.085 2.55197 137.327 2.62319C137.57 2.69464 137.768 2.84048 137.768 2.94731ZM143.937 2.70479C143.937 2.82875 143.706 2.92861 143.423 2.9268C142.984 2.92387 142.973 2.89142 143.35 2.70479C143.904 2.4298 143.937 2.4298 143.937 2.70479ZM51.5452 3.15558C51.6451 3.27955 51.5866 3.38098 51.4156 3.38098C51.2446 3.38098 51.1045 3.27955 51.1045 3.15558C51.1045 3.03161 51.1627 2.93018 51.2341 2.93018C51.3055 2.93018 51.4453 3.03161 51.5452 3.15558ZM128.367 3.15558C128.367 3.27955 128.227 3.38098 128.056 3.38098C127.885 3.38098 127.827 3.27955 127.926 3.15558C128.026 3.03161 128.166 2.93018 128.238 2.93018C128.309 2.93018 128.367 3.03161 128.367 3.15558ZM135.698 3.70668C135.965 3.95372 135.977 4.05718 135.738 4.05718C135.552 4.05718 135.323 3.90503 135.23 3.71908C135.137 3.53313 134.877 3.38098 134.652 3.38098C134.427 3.38098 134.243 3.27595 134.243 3.14769C134.243 2.8558 135.158 3.2072 135.698 3.70668ZM131.813 3.29172C131.715 3.36656 131.462 3.37467 131.25 3.30953C131.015 3.23763 131.085 3.18421 131.427 3.17339C131.737 3.1637 131.91 3.21689 131.813 3.29172ZM45.7188 3.98212C45.336 4.27559 45.5307 4.73337 46.0369 4.72999C46.4435 4.72729 46.4664 4.68536 46.1462 4.52961C45.9235 4.42142 45.8321 4.22014 45.9432 4.08242C46.1653 3.80676 46.0275 3.74523 45.7188 3.98212ZM142.682 4.64412C142.585 4.71895 142.331 4.72706 142.12 4.66192C141.885 4.59002 141.955 4.5366 142.297 4.52578C142.607 4.51609 142.78 4.56928 142.682 4.64412ZM143.643 4.95877C143.643 5.08274 143.511 5.18417 143.35 5.18417C143.188 5.18417 143.056 5.08274 143.056 4.95877C143.056 4.8348 143.188 4.73337 143.35 4.73337C143.511 4.73337 143.643 4.8348 143.643 4.95877ZM146.875 5.07147C146.875 5.25743 146.743 5.40957 146.581 5.40957C146.42 5.40957 146.287 5.25743 146.287 5.07147C146.287 4.88552 146.42 4.73337 146.581 4.73337C146.743 4.73337 146.875 4.88552 146.875 5.07147ZM155.101 5.53557C155.101 5.72874 154.968 5.82431 154.807 5.74767C154.645 5.67103 154.513 5.51303 154.513 5.39627C154.513 5.27952 154.645 5.18417 154.807 5.18417C154.968 5.18417 155.101 5.3424 155.101 5.53557ZM165.97 7.55086C165.97 7.73681 165.772 7.88896 165.53 7.88896C165.287 7.88896 165.089 7.73681 165.089 7.55086C165.089 7.36491 165.287 7.21276 165.53 7.21276C165.772 7.21276 165.97 7.36491 165.97 7.55086ZM176.153 9.5231C176.072 9.67817 176.005 9.55127 176.005 9.24135C176.005 8.93143 176.072 8.80475 176.153 8.9596C176.235 9.11468 176.235 9.36825 176.153 9.5231ZM37.7378 12.1715C37.6379 12.2955 37.6964 12.3969 37.8673 12.3969C38.0383 12.3969 38.1785 12.2955 38.1785 12.1715C38.1785 12.0476 38.1203 11.9461 38.0489 11.9461C37.9775 11.9461 37.8377 12.0476 37.7378 12.1715ZM33.8183 13.0731C33.8183 13.3831 33.8849 13.51 33.9663 13.3549C34.048 13.2 34.048 12.9465 33.9663 12.7914C33.8849 12.6365 33.8183 12.7632 33.8183 13.0731ZM27.6572 13.3468C27.1995 13.6979 27.2107 14.0396 27.676 13.9103C27.8781 13.8541 28.2662 13.9569 28.5388 14.1388C28.8115 14.3209 29.1749 14.403 29.3467 14.3216C29.7654 14.123 29.7445 13.7493 29.315 13.7493C29.1258 13.7493 28.7536 13.5985 28.4883 13.4144C28.1161 13.1559 27.926 13.1405 27.6572 13.3468ZM23.706 14.3349C23.6093 14.4091 23.6011 14.6113 23.6878 14.7846C23.8141 15.0373 23.5849 15.0722 22.5312 14.9613C21.6945 14.8734 21.1434 14.9149 21.0141 15.0751C20.9025 15.2137 20.9512 15.3271 21.1222 15.3271C21.2932 15.3271 21.4333 15.5681 21.4333 15.8624C21.4333 16.2833 21.5905 16.3978 22.1678 16.3978C22.6851 16.3978 22.9022 16.2751 22.9022 15.983C22.9022 15.5266 23.7204 15.1049 24.2979 15.2638C24.5435 15.3314 24.5999 15.2343 24.4683 14.971C24.3338 14.7023 24.3805 14.6288 24.6149 14.74C24.8041 14.8297 24.9586 14.8064 24.9586 14.6883C24.9586 14.5702 24.7495 14.4122 24.4939 14.3369C23.9237 14.169 23.9219 14.169 23.706 14.3349ZM25.5462 14.8179C25.5462 15.2336 26.0891 15.3713 26.6455 15.097C27.062 14.8914 27.0694 14.8639 26.6837 14.9543C26.4204 15.0161 26.057 14.9527 25.8758 14.8137C25.6322 14.6268 25.5462 14.6279 25.5462 14.8179ZM19.23 15.5525C19.1301 15.6765 19.1886 15.7779 19.3596 15.7779C19.5306 15.7779 19.6707 15.9217 19.6707 16.0973C19.6707 16.56 20.3493 16.6644 20.7365 16.2612C20.9865 16.0008 20.9736 15.8437 20.6839 15.6217C20.2283 15.2719 19.4844 15.2365 19.23 15.5525ZM17.247 16.1586C16.9641 16.2154 16.7329 16.4449 16.7329 16.6685C16.7329 16.8921 16.51 17.2144 16.2373 17.3846C15.8058 17.6537 15.7653 17.6451 15.9251 17.3181C16.0341 17.0942 15.9377 16.8921 15.6862 16.8179C15.4541 16.7496 15.2641 16.792 15.2641 16.9119C15.2641 17.032 15.0658 17.1303 14.8234 17.1303C14.581 17.1303 14.3827 17.2286 14.3827 17.3487C14.3827 17.4686 14.198 17.5126 13.9718 17.4459C13.3155 17.2527 13.2332 17.6548 13.8328 18.1277C14.3178 18.5104 14.3827 18.5172 14.3827 18.184C14.3827 17.9765 14.581 17.8065 14.8234 17.8065C15.0658 17.8065 15.2641 17.9656 15.2641 18.1604C15.2641 18.7523 16.532 18.4534 16.765 17.8065C16.8928 17.452 16.9791 17.3893 16.9973 17.6375C17.0302 18.0779 17.4741 18.1631 17.777 17.7869C17.8854 17.6521 18.2215 17.5915 18.5238 17.6521C18.9727 17.742 19.022 17.6893 18.7946 17.3631C18.6416 17.1438 18.5966 16.9027 18.6948 16.8274C18.8901 16.6773 18.2424 15.9873 17.9456 16.0295C17.844 16.0439 17.53 16.102 17.247 16.1586ZM19.0831 16.9049C18.7065 17.0915 18.7171 17.124 19.1566 17.1269C19.4395 17.1287 19.6707 17.0289 19.6707 16.9049C19.6707 16.6299 19.6375 16.6299 19.0831 16.9049ZM11.3874 18.5889C9.87508 19.3374 9.71644 19.5295 10.4902 19.6753C10.7729 19.7285 10.5748 19.731 10.0496 19.6807C9.06133 19.586 8.73465 19.9063 9.56867 20.1518C9.8695 20.2404 9.98701 20.4552 9.89006 20.7394C9.80604 20.9858 9.85716 21.1875 10.0038 21.1875C10.1501 21.1875 10.2699 20.9846 10.2699 20.7367C10.2699 20.2453 10.4864 20.184 11.1251 20.4942C11.6063 20.7279 12.6201 20.3253 12.6201 19.9007C12.6201 19.7388 12.834 19.6766 13.1342 19.7508C13.5487 19.8531 13.5666 19.8333 13.2265 19.6482C12.8824 19.4609 12.8736 19.355 13.1786 19.073C13.482 18.7926 13.4785 18.6499 13.1598 18.3168C12.7864 17.9264 12.6988 17.9397 11.3874 18.5889ZM5.42264 23.4415C5.52399 23.5672 5.30425 23.6653 4.92587 23.6635C4.38003 23.6606 4.33362 23.6173 4.6882 23.4415C5.23492 23.1705 5.20436 23.1705 5.42264 23.4415ZM176.987 29.3018C177.087 29.4258 176.954 29.5272 176.693 29.5272C176.432 29.5272 176.299 29.4258 176.399 29.3018C176.499 29.1779 176.631 29.0764 176.693 29.0764C176.755 29.0764 176.887 29.1779 176.987 29.3018ZM171.947 31.6782C171.851 31.8696 171.71 31.9778 171.633 31.9187C171.556 31.8597 171.58 31.703 171.687 31.5709C171.976 31.2112 172.146 31.2811 171.947 31.6782ZM171.066 33.0306C170.97 33.222 170.829 33.3302 170.752 33.2711C170.675 33.2121 170.699 33.0554 170.805 32.9233C171.095 32.5636 171.264 32.6335 171.066 33.0306ZM164.208 33.8098C164.208 33.9338 164.067 34.0352 163.896 34.0352C163.725 34.0352 163.667 33.9338 163.767 33.8098C163.867 33.6858 164.007 33.5844 164.078 33.5844C164.149 33.5844 164.208 33.6858 164.208 33.8098ZM165.236 33.8098C165.336 33.9338 165.211 34.0352 164.959 34.0352C164.708 34.0352 164.501 33.9338 164.501 33.8098C164.501 33.6858 164.626 33.5844 164.778 33.5844C164.93 33.5844 165.136 33.6858 165.236 33.8098ZM145.7 38.3178C145.7 38.4418 145.568 38.5432 145.406 38.5432C145.244 38.5432 145.112 38.4418 145.112 38.3178C145.112 38.1938 145.244 38.0924 145.406 38.0924C145.568 38.0924 145.7 38.1938 145.7 38.3178ZM32.1073 40.3687C32.2419 40.446 32.1429 40.5707 31.887 40.6459C31.5518 40.7447 31.4216 40.6482 31.4216 40.3018C31.4216 40.0371 31.5209 39.9123 31.642 40.0245C31.763 40.1365 31.9725 40.2916 32.1073 40.3687ZM37.2175 40.7079C37.12 40.7828 36.8665 40.7909 36.6546 40.7257C36.4202 40.6538 36.4898 40.6004 36.8321 40.5896C37.1417 40.5799 37.3151 40.6331 37.2175 40.7079ZM109.272 41.5861C109.272 41.7804 109.007 41.9242 108.648 41.9242C108.127 41.9242 108.085 41.8685 108.39 41.5861C108.592 41.4001 108.872 41.248 109.014 41.248C109.156 41.248 109.272 41.4001 109.272 41.5861ZM77.1035 41.6988C77.2034 41.8227 77.0712 41.9242 76.8098 41.9242C76.5483 41.9242 76.4161 41.8227 76.516 41.6988C76.6159 41.5748 76.7481 41.4734 76.8098 41.4734C76.8714 41.4734 77.0036 41.5748 77.1035 41.6988ZM65.4994 41.784C65.4994 41.8306 65.3011 41.9952 65.0588 42.1496C64.6977 42.3795 64.6181 42.3639 64.6181 42.0644C64.6181 41.8633 64.8164 41.6988 65.0588 41.6988C65.3011 41.6988 65.4994 41.7371 65.4994 41.784ZM84.8885 41.7982C84.8885 41.8529 84.7563 41.9602 84.5948 42.0369C84.4332 42.1135 84.301 42.0687 84.301 41.9375C84.301 41.8063 84.4332 41.6988 84.5948 41.6988C84.7563 41.6988 84.8885 41.7434 84.8885 41.7982ZM71.84 42.375C72.0691 42.375 72.2562 42.5778 72.2562 42.8258C72.2562 43.0737 72.1807 43.2766 72.0885 43.2766C71.751 43.2766 71.2263 42.7014 71.1631 42.2623C71.1276 42.0143 71.1716 41.9384 71.2609 42.0932C71.3505 42.2483 71.6111 42.375 71.84 42.375ZM59.624 42.8258C59.624 43.1163 59.7726 43.2761 59.9912 43.2202C60.1933 43.1686 60.3584 42.991 60.3584 42.8258C60.3584 42.6606 60.1933 42.4829 59.9912 42.4313C59.7726 42.3754 59.624 42.5352 59.624 42.8258ZM78.3324 42.8681C78.2387 43.0478 78.169 42.9944 78.1549 42.7318C78.1423 42.4942 78.2116 42.3612 78.3092 42.4361C78.4067 42.5109 78.4173 42.7054 78.3324 42.8681ZM79.1599 43.502C79.2598 43.6259 79.1353 43.7274 78.8835 43.7274C78.6317 43.7274 78.4255 43.6259 78.4255 43.502C78.4255 43.378 78.5498 43.2766 78.702 43.2766C78.8541 43.2766 79.0601 43.378 79.1599 43.502Z" fill="#C6D65D"/>
<path d="M57.8 7.054C53.348 7.054 49.694 8.482 46.838 11.38C43.982 14.236 42.554 17.848 42.554 22.258C42.554 26.668 43.982 30.322 46.838 33.22C49.694 36.118 53.348 37.546 57.8 37.546C62.21 37.546 65.864 36.118 68.72 33.22C71.576 30.322 73.004 26.668 73.004 22.258C73.004 17.848 71.576 14.236 68.72 11.38C65.864 8.482 62.21 7.054 57.8 7.054ZM57.8 12.43C60.53 12.43 62.756 13.354 64.436 15.202C66.158 17.05 66.998 19.402 66.998 22.258C66.998 25.156 66.158 27.508 64.436 29.398C62.756 31.246 60.53 32.17 57.8 32.17C55.028 32.17 52.802 31.246 51.08 29.398C49.4 27.508 48.56 25.156 48.56 22.258C48.56 19.402 49.4 17.05 51.08 15.202C52.802 13.354 55.028 12.43 57.8 12.43ZM86.2688 5.878C81.2708 5.878 78.5828 8.482 78.5828 13.48V15.706H75.2228V20.662H78.5828V37H84.0848V20.662H88.9568V15.706H84.0848V13.606C84.0848 11.632 85.0088 10.666 86.8988 10.666C87.6128 10.666 88.3688 10.834 89.0828 11.128V6.256C88.2008 6.004 87.2348 5.878 86.2688 5.878ZM101.402 5.878C96.4036 5.878 93.7996 8.482 93.7996 13.48V15.706H90.3556V20.662H93.7996V37H99.3016V20.662H103.88V15.706H99.3016V13.606C99.3016 11.632 100.1 10.666 101.696 10.666C102.41 10.666 103.166 10.834 103.88 11.128V6.256C103.082 6.004 102.242 5.878 101.402 5.878ZM107.408 15.706V37H112.868V15.706H107.408ZM110.138 6.214C108.29 6.214 106.82 7.642 106.82 9.448C106.82 11.296 108.29 12.682 110.138 12.682C111.986 12.682 113.456 11.296 113.456 9.448C113.456 7.642 111.944 6.214 110.138 6.214ZM127.867 15.244C124.759 15.244 122.197 16.294 120.181 18.394C118.207 20.494 117.198 23.14 117.198 26.374C117.198 29.65 118.207 32.338 120.181 34.396C122.155 36.454 124.717 37.462 127.867 37.462C132.949 37.462 136.771 34.648 137.779 29.482H132.445C131.941 31.204 130.261 32.464 128.119 32.464C125.053 32.464 122.827 29.902 122.827 26.374C122.827 24.568 123.331 23.098 124.297 21.964C125.263 20.788 126.523 20.2 127.993 20.2C130.135 20.2 131.773 21.334 132.403 23.224H137.695C136.897 18.016 133.075 15.244 127.867 15.244ZM151.161 15.244C148.011 15.244 145.491 16.294 143.517 18.394C141.543 20.452 140.577 23.14 140.577 26.374C140.577 29.692 141.543 32.38 143.475 34.438C145.449 36.454 148.011 37.462 151.161 37.462C156.243 37.462 159.561 34.9 160.905 30.322H155.613C154.983 31.96 153.555 32.8 151.329 32.8C148.347 32.8 146.373 30.868 146.205 28.012H161.031V26.332C161.031 19.066 157.041 15.244 151.161 15.244ZM146.247 24.232C146.541 21.586 148.347 19.78 151.035 19.78C153.723 19.78 155.487 21.544 155.529 24.232H146.247ZM185.806 15.244C182.824 15.244 180.556 16.336 179.044 18.562L178.666 15.706H173.962V46.03H179.422V34.648C180.724 36.538 182.866 37.462 185.806 37.462C188.62 37.462 190.972 36.412 192.862 34.27C194.752 32.128 195.718 29.482 195.718 26.332C195.718 23.182 194.794 20.578 192.904 18.436C191.014 16.294 188.662 15.244 185.806 15.244ZM184.672 20.368C187.738 20.368 190.048 22.762 190.048 26.332C190.048 29.902 187.696 32.338 184.672 32.338C183.244 32.338 181.984 31.792 180.934 30.742C179.884 29.692 179.338 28.264 179.296 26.5V26.248C179.296 24.442 179.842 23.014 180.892 21.964C181.942 20.914 183.202 20.368 184.672 20.368ZM200.045 6.34V37H205.505V6.34H200.045ZM219.22 15.244C214.306 15.244 211.03 18.31 210.736 22.72H216.028C216.028 21.04 217.372 19.906 219.22 19.906C221.194 19.906 222.202 20.998 222.202 23.14V23.938L216.7 24.946C212.542 25.618 210.106 27.424 210.106 31.33C210.106 35.068 212.71 37.462 216.574 37.462C219.304 37.462 221.32 36.454 222.664 34.396L223 37H227.662V23.014C227.662 17.932 224.428 15.244 219.22 15.244ZM222.202 28.222C222.202 29.314 221.95 30.238 221.446 31.036C220.648 32.338 219.514 32.968 218.044 32.968C216.49 32.968 215.566 32.17 215.566 30.868C215.566 29.65 216.364 28.852 217.96 28.474L222.202 27.592V28.222ZM243.816 15.244C241.128 15.244 239.196 16.336 238.062 18.478L237.642 15.706H232.98V37H238.398V25.744C238.398 22.384 239.952 20.536 242.178 20.536C244.194 20.536 245.202 21.796 245.202 24.358V37H250.704V23.182C250.704 18.268 248.31 15.244 243.816 15.244ZM257.414 10.54L257.372 15.706H253.886V20.662H257.372L257.288 30.574C257.246 35.278 259.556 37.294 264.302 37.294C265.772 37.294 266.948 37.126 267.746 36.832V32.044C267.032 32.254 266.318 32.338 265.52 32.338C263.462 32.338 262.748 31.498 262.748 29.272L262.832 20.662H267.746V15.706H262.874L262.916 10.54H257.414ZM278.83 15.244C276.352 15.244 274.42 15.916 273.034 17.26C271.648 18.562 270.976 20.2 270.976 22.174C270.976 25.66 273.118 27.676 277.78 28.474C280.804 29.02 281.644 29.734 281.644 31.12C281.644 32.422 280.678 33.136 278.998 33.136C277.024 33.136 275.974 32.254 275.932 30.532H270.556C270.682 34.774 273.706 37.462 278.872 37.462C283.618 37.462 287.104 35.11 287.104 30.532C287.104 26.962 285.214 24.904 280.174 24.064C277.276 23.56 276.436 22.972 276.436 21.628C276.436 20.326 277.276 19.528 278.788 19.528C280.342 19.528 281.182 20.326 281.224 21.964H286.642C286.474 17.932 283.324 15.244 278.83 15.244Z" fill="#282727"/>
</svg>
