<svg width="40" height="40" viewBox="0 0 40 40" fill="none" xmlns="http://www.w3.org/2000/svg">
<rect width="40" height="40" rx="2" fill="#0F5C4C"/>
<path d="M27.7156 11.3656L10.2406 16.2875C10.0919 16.3281 9.95926 16.4137 9.86088 16.5324C9.76249 16.6512 9.7031 16.7974 9.6908 16.9511C9.67851 17.1048 9.7139 17.2586 9.79215 17.3915C9.87041 17.5244 9.98772 17.6299 10.1281 17.6937L18.1531 21.4906C18.3103 21.5634 18.4366 21.6896 18.5094 21.8468L22.3062 29.8718C22.3701 30.0122 22.4756 30.1296 22.6085 30.2078C22.7414 30.2861 22.8951 30.3215 23.0489 30.3092C23.2026 30.2969 23.3488 30.2375 23.4675 30.1391C23.5863 30.0407 23.6718 29.9081 23.7125 29.7593L28.6344 12.2843C28.6717 12.1568 28.674 12.0216 28.6411 11.8929C28.6081 11.7642 28.5412 11.6467 28.4472 11.5527C28.3533 11.4588 28.2358 11.3918 28.1071 11.3589C27.9784 11.326 27.8431 11.3283 27.7156 11.3656V11.3656Z" stroke="white" stroke-width="1.5" stroke-linecap="round" stroke-linejoin="round"/>
<path d="M18.3969 21.6031L22.6344 17.3656" stroke="white" stroke-width="1.5" stroke-linecap="round" stroke-linejoin="round"/>
</svg>
